<svg width="40" height="40" viewBox="0 0 40 40" fill="none" xmlns="http://www.w3.org/2000/svg">
<g clip-path="url(#clip0_28_359)">
<g filter="url(#filter0_d_28_359)">
<path d="M19.997 2C10.049 2 2 10.0505 2 20C1.99843 22.3642 2.46293 24.7056 3.36696 26.8902C4.27098 29.0747 5.59679 31.0597 7.26856 32.7314C8.94033 34.4032 10.9253 35.729 13.1098 36.633C15.2944 37.5371 17.6358 38.0016 20 38C29.9495 38 38 29.9495 38 20C37.9985 10.0505 29.882 2 19.997 2Z" fill="#17202C" stroke="black" stroke-width="0.5"/>
<path d="M26.7394 32.8115C28.1259 31.6911 29.1162 30.1731 29.7755 28.1274L32.3481 20.1773L34.9208 12.2272H30.5012L27.1355 25.3559L23.9679 12.2272H19.4167L24.8932 29.777C24.8932 29.777 24.364 30.3712 24.1009 30.5677C23.3752 31.0969 22.2533 31.4265 20.7367 31.6261L21.1979 34.7257C23.5067 34.5277 25.3544 33.9349 26.7394 32.8115Z" fill="white"/>
<path d="M14.1368 25.1593C13.0164 25.1593 12.2241 24.8282 11.6314 24.0374V24.0359H11.6329C11.1052 23.2436 10.7756 21.9917 10.8406 20.2075C10.8406 16.7118 11.9625 14.9972 14.2048 14.9972C14.734 14.9972 15.3283 15.0637 15.7894 15.2602C16.3277 15.4844 16.8369 15.7727 17.306 16.1191L19.1536 13.6122C18.427 12.9953 17.6021 12.5047 16.7133 12.1606C15.921 11.831 14.9321 11.6995 13.8752 11.6995C12.3572 11.6995 10.9722 12.0291 9.85179 12.7549C8.69238 13.4854 7.7733 14.5407 7.20882 15.7894C6.61763 17.0429 6.2865 18.5609 6.2865 20.209C6.2865 21.9251 6.61763 23.3767 7.21033 24.6316C7.77788 25.8431 8.69803 26.8549 9.85028 27.5347C11.0372 28.1939 12.3557 28.5235 13.9402 28.5235C15.9195 28.5235 17.6356 27.9308 19.1521 26.6758L17.3029 24.0374C16.6452 24.432 16.1175 24.6982 15.6549 24.8947C15.1937 25.0928 14.666 25.1593 14.1368 25.1593Z" fill="white"/>
</g>
</g>
<defs>
<filter id="filter0_d_28_359" x="1.75" y="1.75" width="38.5" height="38.5" filterUnits="userSpaceOnUse" color-interpolation-filters="sRGB">
<feFlood flood-opacity="0" result="BackgroundImageFix"/>
<feColorMatrix in="SourceAlpha" type="matrix" values="0 0 0 0 0 0 0 0 0 0 0 0 0 0 0 0 0 0 127 0" result="hardAlpha"/>
<feOffset dx="1" dy="1"/>
<feGaussianBlur stdDeviation="0.5"/>
<feComposite in2="hardAlpha" operator="out"/>
<feColorMatrix type="matrix" values="0 0 0 0 0 0 0 0 0 0 0 0 0 0 0 0 0 0 0.25 0"/>
<feBlend mode="normal" in2="BackgroundImageFix" result="effect1_dropShadow_28_359"/>
<feBlend mode="normal" in="SourceGraphic" in2="effect1_dropShadow_28_359" result="shape"/>
</filter>
<clipPath id="clip0_28_359">
<rect width="40" height="40" fill="white"/>
</clipPath>
</defs>
</svg>
