<svg width="40" height="40" viewBox="0 0 40 40" fill="none" xmlns="http://www.w3.org/2000/svg">
<g filter="url(#filter0_d_28_453)">
<path d="M2 31.9808C2.0637 32.7659 2.34072 33.5555 3.06365 34.6147C3.92286 35.8724 5.39834 36.5627 6.47532 35.4546C7.20121 34.7065 15.0586 20.9724 18.845 15.7668C18.9489 15.618 19.0872 15.4964 19.2482 15.4125C19.4091 15.3286 19.5879 15.2847 19.7694 15.2847C19.9509 15.2847 20.1298 15.3286 20.2907 15.4125C20.4516 15.4964 20.5899 15.618 20.6938 15.7668C24.4803 20.9724 32.3377 34.7065 33.0636 35.4546C34.1405 36.5627 35.616 35.8724 36.4752 34.6147C37.3196 33.3777 37.5537 32.5111 37.5537 31.5837C37.5537 30.9527 25.3173 8.18052 24.0848 6.28432C22.8996 4.4622 22.5382 4.06518 20.5338 4H19.005C17.0007 4.06518 16.6392 4.46072 15.4526 6.28432C14.2468 8.14052 2.48886 30.0164 2 31.5156V31.9808Z" fill="#000020"/>
<path d="M2 31.9808C2.0637 32.7659 2.34072 33.5555 3.06365 34.6147C3.92286 35.8724 5.39834 36.5627 6.47532 35.4546C7.20121 34.7065 15.0586 20.9724 18.845 15.7668C18.9489 15.618 19.0872 15.4964 19.2482 15.4125C19.4091 15.3286 19.5879 15.2847 19.7694 15.2847C19.9509 15.2847 20.1298 15.3286 20.2907 15.4125C20.4516 15.4964 20.5899 15.618 20.6938 15.7668C24.4803 20.9724 32.3377 34.7065 33.0636 35.4546C34.1405 36.5627 35.616 35.8724 36.4752 34.6147C37.3196 33.3777 37.5537 32.5111 37.5537 31.5837C37.5537 30.9527 25.3173 8.18052 24.0848 6.28432C22.8996 4.4622 22.5382 4.06518 20.5338 4H19.005C17.0007 4.06518 16.6392 4.46072 15.4526 6.28432C14.2468 8.14052 2.48886 30.0164 2 31.5156V31.9808Z" stroke="black" stroke-width="0.5"/>
</g>
<defs>
<filter id="filter0_d_28_453" x="1.75" y="3.74987" width="38.0537" height="34.51" filterUnits="userSpaceOnUse" color-interpolation-filters="sRGB">
<feFlood flood-opacity="0" result="BackgroundImageFix"/>
<feColorMatrix in="SourceAlpha" type="matrix" values="0 0 0 0 0 0 0 0 0 0 0 0 0 0 0 0 0 0 127 0" result="hardAlpha"/>
<feOffset dx="1" dy="1"/>
<feGaussianBlur stdDeviation="0.5"/>
<feComposite in2="hardAlpha" operator="out"/>
<feColorMatrix type="matrix" values="0 0 0 0 0 0 0 0 0 0 0 0 0 0 0 0 0 0 0.25 0"/>
<feBlend mode="normal" in2="BackgroundImageFix" result="effect1_dropShadow_28_453"/>
<feBlend mode="normal" in="SourceGraphic" in2="effect1_dropShadow_28_453" result="shape"/>
</filter>
</defs>
</svg>
