<svg width="40" height="40" viewBox="0 0 40 40" fill="none" xmlns="http://www.w3.org/2000/svg">
<g clip-path="url(#clip0_28_209)">
<g filter="url(#filter0_d_28_209)">
<path d="M6.91693 29.4376L5.59534 28.6746L20.318 3.17488L21.6396 3.9379L6.91693 29.4376Z" fill="#E535AB" stroke="black" stroke-width="0.5"/>
<path d="M5.29248 26.6374H34.7378V28.1634H5.29248V26.6374Z" fill="#E535AB" stroke="black" stroke-width="0.5"/>
<path d="M20.6034 35.9983L5.87524 27.4947L6.63827 26.1731L21.3665 34.6767L20.6034 35.9983ZM33.3978 13.8358L18.6696 5.33221L19.4326 4.01062L34.1608 12.5142L33.3978 13.8358Z" fill="#E535AB" stroke="black" stroke-width="0.5"/>
<path d="M6.6423 13.8299L5.87927 12.5084L20.6075 4.00482L21.3705 5.32632L6.6423 13.8299Z" fill="#E535AB" stroke="black" stroke-width="0.5"/>
<path d="M33.1262 29.4379L18.4035 3.93819L19.7251 3.17516L34.4478 28.6749L33.1262 29.4379ZM6.46008 11.4964H7.98613V28.5036H6.46008V11.4964Z" fill="#E535AB" stroke="black" stroke-width="0.5"/>
<path d="M32.0536 11.4964H33.5796V28.5036H32.0536V11.4964Z" fill="#E535AB" stroke="black" stroke-width="0.5"/>
<path d="M20.3436 35.3524L19.6771 34.1979L32.4867 26.8021L33.1532 27.9565L20.3436 35.3524Z" fill="#E535AB" stroke="black" stroke-width="0.5"/>
<path d="M35.602 29C34.7195 30.5352 32.7522 31.0592 31.217 30.1767C29.6817 29.2942 29.1577 27.3269 30.0402 25.7916C30.9228 24.2564 32.8901 23.7324 34.4253 24.6149C35.9698 25.5066 36.4938 27.4648 35.602 29ZM9.9902 14.2084C9.10767 15.7436 7.14035 16.2676 5.60511 15.3851C4.06987 14.5026 3.54587 12.5352 4.4284 11C5.31094 9.46476 7.27825 8.94076 8.81349 9.82329C10.3487 10.715 10.8727 12.6731 9.9902 14.2084ZM4.4376 29C3.55506 27.4648 4.07907 25.5066 5.61431 24.6149C7.14955 23.7324 9.10767 24.2564 9.99939 25.7916C10.8819 27.3269 10.3579 29.285 8.82268 30.1767C7.27825 31.0592 5.32013 30.5352 4.4376 29ZM30.0494 14.2084C29.1669 12.6731 29.6909 10.715 31.2261 9.82329C32.7614 8.94076 34.7195 9.46476 35.6112 11C36.4938 12.5352 35.9698 14.4934 34.4345 15.3851C32.8993 16.2676 30.932 15.7436 30.0494 14.2084ZM20.0198 38C18.2456 38 16.8114 36.5659 16.8114 34.7916C16.8114 33.0174 18.2456 31.5832 20.0198 31.5832C21.7941 31.5832 23.2282 33.0174 23.2282 34.7916C23.2282 36.5567 21.7941 38 20.0198 38ZM20.0198 8.41675C18.2456 8.41675 16.8114 6.98264 16.8114 5.20838C16.8114 3.43412 18.2456 2 20.0198 2C21.7941 2 23.2282 3.43412 23.2282 5.20838C23.2282 6.98264 21.7941 8.41675 20.0198 8.41675Z" fill="#E535AB"/>
<path d="M9.9902 14.2084C9.10767 15.7436 7.14035 16.2676 5.60511 15.3851C4.06987 14.5026 3.54587 12.5352 4.4284 11C5.31094 9.46476 7.27825 8.94076 8.81349 9.82329C10.3487 10.715 10.8727 12.6731 9.9902 14.2084M4.4376 29C3.55506 27.4648 4.07907 25.5066 5.61431 24.6149C7.14955 23.7324 9.10767 24.2564 9.99939 25.7916C10.8819 27.3269 10.3579 29.285 8.82268 30.1767C7.27825 31.0592 5.32013 30.5352 4.4376 29M30.0494 14.2084C29.1669 12.6731 29.6909 10.715 31.2261 9.82329C32.7614 8.94076 34.7195 9.46476 35.6112 11C36.4938 12.5352 35.9698 14.4934 34.4345 15.3851C32.8993 16.2676 30.932 15.7436 30.0494 14.2084M35.602 29C34.7195 30.5352 32.7522 31.0592 31.217 30.1767C29.6817 29.2942 29.1577 27.3269 30.0402 25.7916C30.9228 24.2564 32.8901 23.7324 34.4253 24.6149C35.9698 25.5066 36.4938 27.4648 35.602 29ZM20.0198 38C18.2456 38 16.8114 36.5659 16.8114 34.7916C16.8114 33.0174 18.2456 31.5832 20.0198 31.5832C21.7941 31.5832 23.2282 33.0174 23.2282 34.7916C23.2282 36.5567 21.7941 38 20.0198 38ZM20.0198 8.41675C18.2456 8.41675 16.8114 6.98264 16.8114 5.20838C16.8114 3.43412 18.2456 2 20.0198 2C21.7941 2 23.2282 3.43412 23.2282 5.20838C23.2282 6.98264 21.7941 8.41675 20.0198 8.41675Z" stroke="black" stroke-width="0.5"/>
</g>
</g>
<defs>
<filter id="filter0_d_28_209" x="3.75" y="1.75" width="34.5397" height="38.5" filterUnits="userSpaceOnUse" color-interpolation-filters="sRGB">
<feFlood flood-opacity="0" result="BackgroundImageFix"/>
<feColorMatrix in="SourceAlpha" type="matrix" values="0 0 0 0 0 0 0 0 0 0 0 0 0 0 0 0 0 0 127 0" result="hardAlpha"/>
<feOffset dx="1" dy="1"/>
<feGaussianBlur stdDeviation="0.5"/>
<feComposite in2="hardAlpha" operator="out"/>
<feColorMatrix type="matrix" values="0 0 0 0 0 0 0 0 0 0 0 0 0 0 0 0 0 0 0.25 0"/>
<feBlend mode="normal" in2="BackgroundImageFix" result="effect1_dropShadow_28_209"/>
<feBlend mode="normal" in="SourceGraphic" in2="effect1_dropShadow_28_209" result="shape"/>
</filter>
<clipPath id="clip0_28_209">
<rect width="40" height="40" fill="white"/>
</clipPath>
</defs>
</svg>
