<svg width="40" height="40" viewBox="0 0 40 40" fill="none" xmlns="http://www.w3.org/2000/svg">
<g clip-path="url(#clip0_31_110)">
<g filter="url(#filter0_d_31_110)">
<path fill-rule="evenodd" clip-rule="evenodd" d="M26.7631 6.79992L22.5724 9.20007L18.3817 11.5999L14.1907 14V28.4001L18.3817 26L22.5724 23.5999V18.7999L18.3817 21.2001V16.4001L22.5724 14L26.7631 11.5999V26L22.5724 28.4001L18.3817 30.7999L14.1907 33.2001L10 35.5999L14.1907 38L18.3817 35.5999L22.5724 33.2001L26.7631 30.7999L30.9541 28.4001V4.40012L26.7631 2V6.79992Z" fill="#060917"/>
<path fill-rule="evenodd" clip-rule="evenodd" d="M26.7631 6.79992L22.5724 9.20007L18.3817 11.5999L14.1907 14V28.4001L18.3817 26L22.5724 23.5999V18.7999L18.3817 21.2001V16.4001L22.5724 14L26.7631 11.5999V26L22.5724 28.4001L18.3817 30.7999L14.1907 33.2001L10 35.5999L14.1907 38L18.3817 35.5999L22.5724 33.2001L26.7631 30.7999L30.9541 28.4001V4.40012L26.7631 2V6.79992Z" stroke="black" stroke-width="0.5"/>
</g>
<path fill-rule="evenodd" clip-rule="evenodd" d="M26.7631 6.79992L22.5724 9.20007L18.3817 11.5999L14.1907 14V28.4001L18.3817 26L22.5724 23.5999V18.7999L18.3817 21.2001V16.4001L22.5724 14L26.7631 11.5999V26L22.5724 28.4001L18.3817 30.7999L14.1907 33.2001L10 35.5999V12L26.7631 2V6.79992Z" fill="white" stroke="black" stroke-width="0.5"/>
</g>
<defs>
<filter id="filter0_d_31_110" x="9.49695" y="1.56873" width="23.7072" height="38.7194" filterUnits="userSpaceOnUse" color-interpolation-filters="sRGB">
<feFlood flood-opacity="0" result="BackgroundImageFix"/>
<feColorMatrix in="SourceAlpha" type="matrix" values="0 0 0 0 0 0 0 0 0 0 0 0 0 0 0 0 0 0 127 0" result="hardAlpha"/>
<feOffset dx="1" dy="1"/>
<feGaussianBlur stdDeviation="0.5"/>
<feComposite in2="hardAlpha" operator="out"/>
<feColorMatrix type="matrix" values="0 0 0 0 0 0 0 0 0 0 0 0 0 0 0 0 0 0 0.25 0"/>
<feBlend mode="normal" in2="BackgroundImageFix" result="effect1_dropShadow_31_110"/>
<feBlend mode="normal" in="SourceGraphic" in2="effect1_dropShadow_31_110" result="shape"/>
</filter>
<clipPath id="clip0_31_110">
<rect width="40" height="40" fill="white"/>
</clipPath>
</defs>
</svg>
