<svg width="40" height="40" viewBox="0 0 40 40" fill="none" xmlns="http://www.w3.org/2000/svg">
<g clip-path="url(#clip0_28_151)">
<g filter="url(#filter0_d_28_151)">
<path d="M2 4C2 2.89543 2.89543 2 4 2H36C37.1046 2 38 2.89543 38 4V36C38 37.1046 37.1046 38 36 38H4C2.89543 38 2 37.1046 2 36V4Z" fill="#F7DF1E" stroke="black" stroke-width="0.5"/>
<path d="M18.2045 18.5469H21.5765L21.5705 18.6309C21.5705 21.7359 21.5885 24.8184 21.5705 27.8994C21.578 29.8134 21.74 31.5234 20.975 32.9184C20.4455 33.9984 19.433 34.6959 18.2585 35.0349C16.454 35.4399 14.7305 35.1924 13.448 34.4274C12.587 33.9099 11.9195 33.0969 11.462 32.1519L14.1995 30.4644C14.225 30.4644 14.2955 30.6009 14.39 30.7584C14.7395 31.3419 15.041 31.7469 15.635 32.0409C16.214 32.2224 17.489 32.3544 17.984 31.3209C18.2855 30.7989 18.191 29.1024 18.191 27.2544C18.191 24.3429 18.2045 21.4539 18.2045 18.5469Z" fill="black"/>
<path d="M30.5465 25.1049C33.719 26.3919 34.7885 27.7719 35.051 29.4144L34.982 29.3139C35.231 30.7314 34.9145 31.6539 34.871 31.7889C33.6995 35.7939 27.1745 35.9289 24.5645 33.2949C24.0245 32.6649 23.6645 32.3514 23.3495 31.6314L26.0945 30.0549C26.837 31.1799 27.5105 31.7889 28.727 32.0589C30.371 32.2614 32.036 31.6989 31.676 29.9439C31.2935 28.5024 28.2995 28.1664 26.252 26.6364C24.182 25.2414 23.6885 21.8664 25.3985 19.9299C25.9835 19.2099 26.9495 18.6699 27.9635 18.4224L29.021 18.2889C31.0685 18.2424 32.327 18.7824 33.272 19.8399C33.545 20.1084 33.746 20.3799 34.151 21.0099C33.0695 21.6834 33.0695 21.6834 31.5187 22.6973L31.5185 22.6974C31.1795 21.9774 30.6395 21.5274 30.0545 21.3474C29.1545 21.0774 28.007 21.3684 27.782 22.3374C27.6935 22.6299 27.7145 22.8999 27.851 23.3949C28.2155 24.2274 29.4425 24.5874 30.5465 25.1049Z" fill="black"/>
</g>
</g>
<defs>
<filter id="filter0_d_28_151" x="1.75" y="1.75" width="38.5" height="38.5" filterUnits="userSpaceOnUse" color-interpolation-filters="sRGB">
<feFlood flood-opacity="0" result="BackgroundImageFix"/>
<feColorMatrix in="SourceAlpha" type="matrix" values="0 0 0 0 0 0 0 0 0 0 0 0 0 0 0 0 0 0 127 0" result="hardAlpha"/>
<feOffset dx="1" dy="1"/>
<feGaussianBlur stdDeviation="0.5"/>
<feComposite in2="hardAlpha" operator="out"/>
<feColorMatrix type="matrix" values="0 0 0 0 0 0 0 0 0 0 0 0 0 0 0 0 0 0 0.25 0"/>
<feBlend mode="normal" in2="BackgroundImageFix" result="effect1_dropShadow_28_151"/>
<feBlend mode="normal" in="SourceGraphic" in2="effect1_dropShadow_28_151" result="shape"/>
</filter>
<clipPath id="clip0_28_151">
<rect width="40" height="40" fill="white"/>
</clipPath>
</defs>
</svg>
