<svg width="40" height="40" viewBox="0 0 40 40" fill="none" xmlns="http://www.w3.org/2000/svg">
<g filter="url(#filter0_d_28_320)">
<path d="M34.5559 19.7249C34.5559 17.8743 33.0556 16.374 31.2051 16.374C31.0859 16.374 30.9686 16.3804 30.8527 16.3927L35.4551 2.81839H15.8966L20.4926 16.3808C20.4248 16.3765 20.3568 16.3743 20.2889 16.3742C18.4383 16.3742 16.938 17.8742 16.938 19.725C16.938 21.2208 17.9184 22.4873 19.2714 22.9182C18.5568 24.156 17.6576 25.2709 16.6366 26.2342C15.2483 27.5438 13.6595 28.5369 11.9411 29.1488C9.89515 28.0978 8.92906 25.7603 9.80076 23.7109C9.89923 23.4794 9.99975 23.2448 10.0958 23.0113C11.578 22.6654 12.6826 21.3366 12.6826 19.749C12.6826 17.8983 11.1823 16.3981 9.33162 16.3981C7.48094 16.3981 5.98078 17.8983 5.98078 19.749C5.98078 20.8838 6.54534 21.8863 7.40849 22.4924C6.57914 24.3807 5.35998 26.357 4.98012 28.6475C4.52488 31.3925 4.97859 34.3063 7.35275 35.9519C12.882 39.7841 18.8839 33.5762 25.2121 32.0156C27.5055 31.4501 30.023 31.5412 32.0436 30.371C33.561 29.4922 34.5614 28.0356 34.8452 26.4005C35.1258 24.7852 34.7169 23.1769 33.7765 21.8727C34.281 21.2708 34.557 20.5102 34.5559 19.7249Z" fill="#99425B"/>
<path d="M34.0389 26.2605C33.7925 27.6801 32.9157 28.9201 31.6335 29.6628C30.4382 30.3551 29.0059 30.5617 27.4893 30.7803C26.6769 30.8974 25.8369 31.0187 25.0162 31.221C22.8462 31.7561 20.7444 32.8001 18.712 33.8097C14.6443 35.8302 11.1314 37.5749 7.81912 35.2792C5.39279 33.5976 5.50478 30.4863 5.78744 28.7814C6.04944 27.2018 6.75775 25.7471 7.44258 24.3403C7.55926 24.1012 7.67499 23.8616 7.78978 23.6216C8.135 23.7596 8.49724 23.8505 8.86672 23.8918C8.16951 26.1927 9.26596 28.6946 11.5672 29.8767L11.8822 30.0386L12.2156 29.9199C14.0349 29.2719 15.7114 28.2323 17.1983 26.8294C18.1594 25.9226 18.9858 24.9194 19.665 23.8474C19.8715 23.8786 20.0801 23.8942 20.2889 23.8942C22.4011 23.8942 24.1501 22.3152 24.4208 20.2759C25.2853 20.2443 26.2036 20.244 27.0731 20.2756C27.3435 22.3152 29.0928 23.8943 31.205 23.8943C32.0881 23.8943 32.9073 23.6176 33.5822 23.1474C34.0507 24.1065 34.2256 25.1856 34.0389 26.2605ZM9.33178 17.2165C10.7282 17.2165 11.8642 18.3526 11.8642 19.7491C11.8642 20.2506 11.717 20.7184 11.4644 21.1123C11.0434 21.7688 10.3278 22.2188 9.50576 22.2749C9.44824 22.2787 9.3902 22.2816 9.33178 22.2816C9.02055 22.2816 8.72246 22.2248 8.44681 22.1217C7.89168 21.913 7.4268 21.517 7.13237 21.0022C6.91374 20.6208 6.79887 20.1887 6.7992 19.7491C6.7992 18.3526 7.93532 17.2165 9.33178 17.2165ZM17.7566 19.725C17.7566 18.4562 18.6945 17.4028 19.9131 17.2206C20.0358 17.2021 20.1614 17.1925 20.289 17.1925C21.1009 17.1925 21.8238 17.5771 22.2873 18.173C22.4034 18.3216 22.5026 18.4827 22.583 18.6533C22.7404 18.9886 22.8218 19.3546 22.8215 19.725C22.8215 19.9274 22.797 20.1242 22.752 20.313C22.5051 21.3462 21.6241 22.136 20.5445 22.2447C20.4606 22.2531 20.3754 22.2574 20.289 22.2574C19.8019 22.2578 19.3251 22.1169 18.9166 21.8517C18.2193 21.4 17.7566 20.6157 17.7566 19.725ZM28.3263 16.7135C27.7752 17.2395 27.3786 17.9063 27.1795 18.6417C26.2249 18.6065 25.2694 18.6065 24.3149 18.6417C24.1006 17.8468 23.6565 17.1455 23.0589 16.6128L25.6795 11.314L28.3263 16.7135ZM17.0381 3.63702H34.3136L30.2332 15.6711C30.0577 15.7131 29.8851 15.7666 29.7165 15.8312L25.6858 7.60866L21.6437 15.7821C21.4674 15.7216 21.2874 15.673 21.1046 15.6368L17.0381 3.63702ZM33.7374 19.7251C33.7374 19.979 33.6995 20.2241 33.6298 20.4556C33.4642 21.0007 33.1205 21.4743 32.6536 21.8007C32.2293 22.0985 31.7234 22.258 31.205 22.2576C30.0357 22.2576 29.0493 21.4607 28.7592 20.3816C28.7016 20.1676 28.6725 19.9468 28.6725 19.7251C28.6725 19.3789 28.7424 19.0488 28.8687 18.7481C28.9338 18.5942 29.0141 18.4471 29.1082 18.309C29.564 17.6363 30.333 17.1927 31.205 17.1927C31.2849 17.1927 31.3638 17.1968 31.4419 17.2041C32.7277 17.3239 33.7375 18.4085 33.7375 19.7251H33.7374ZM35.3743 19.7251C35.3743 17.6896 33.9077 15.9912 31.976 15.6285L36.5968 2H14.7551L19.383 15.656C17.5184 16.071 16.1198 17.7372 16.1198 19.725C16.1198 21.2176 16.9086 22.5286 18.0908 23.2654C17.5221 24.1126 16.8479 24.9098 16.0752 25.6389C14.8496 26.7949 13.4844 27.6717 12.0126 28.2486C10.53 27.3174 9.90335 25.5611 10.5541 24.0312L10.6051 23.9113L10.7008 23.6863C12.3292 23.1183 13.501 21.5685 13.501 19.7491C13.501 17.4501 11.6307 15.5798 9.33178 15.5798C7.03288 15.5798 5.1623 17.4501 5.1623 19.7491C5.1623 20.9095 5.63935 21.9602 6.40697 22.7169C6.26381 23.0202 6.11848 23.3225 5.97099 23.6238C5.26907 25.0653 4.47364 26.6991 4.17274 28.5136C3.57528 32.117 4.53908 34.9975 6.8867 36.6245C8.31122 37.6117 9.75794 38 11.2137 38C13.9548 38 16.7279 36.6228 19.44 35.2756C21.3933 34.3055 23.4131 33.3023 25.4081 32.8102C26.1505 32.6272 26.9143 32.517 27.723 32.4004C29.3267 32.169 30.9849 31.9298 32.4538 31.0792C34.1565 30.0929 35.322 28.4386 35.6516 26.5406C35.9345 24.9111 35.5941 23.279 34.7637 21.8948C35.1638 21.2419 35.3752 20.4908 35.3743 19.725V19.7251Z" fill="white"/>
</g>
<defs>
<filter id="filter0_d_28_320" x="4" y="2" width="34.5968" height="38" filterUnits="userSpaceOnUse" color-interpolation-filters="sRGB">
<feFlood flood-opacity="0" result="BackgroundImageFix"/>
<feColorMatrix in="SourceAlpha" type="matrix" values="0 0 0 0 0 0 0 0 0 0 0 0 0 0 0 0 0 0 127 0" result="hardAlpha"/>
<feOffset dx="1" dy="1"/>
<feGaussianBlur stdDeviation="0.5"/>
<feComposite in2="hardAlpha" operator="out"/>
<feColorMatrix type="matrix" values="0 0 0 0 0 0 0 0 0 0 0 0 0 0 0 0 0 0 0.25 0"/>
<feBlend mode="normal" in2="BackgroundImageFix" result="effect1_dropShadow_28_320"/>
<feBlend mode="normal" in="SourceGraphic" in2="effect1_dropShadow_28_320" result="shape"/>
</filter>
</defs>
</svg>
