<svg width="40" height="40" viewBox="0 0 40 40" fill="none" xmlns="http://www.w3.org/2000/svg">
<g filter="url(#filter0_d_28_467)">
<path d="M20 38C29.9411 38 38 29.9411 38 20C38 10.0589 29.9411 2 20 2C10.0589 2 2 10.0589 2 20C2 29.9411 10.0589 38 20 38Z" fill="black"/>
<path d="M31.9016 33.5041L15.8284 12.8H12.8V27.194H15.2227V15.8767L29.9998 34.969C30.6666 34.5227 31.3018 34.0331 31.9016 33.5041Z" fill="url(#paint0_linear_28_467)"/>
<path d="M27.4001 12.8H25.0001V27.2H27.4001V12.8Z" fill="url(#paint1_linear_28_467)"/>
</g>
<defs>
<filter id="filter0_d_28_467" x="2" y="2" width="38" height="38" filterUnits="userSpaceOnUse" color-interpolation-filters="sRGB">
<feFlood flood-opacity="0" result="BackgroundImageFix"/>
<feColorMatrix in="SourceAlpha" type="matrix" values="0 0 0 0 0 0 0 0 0 0 0 0 0 0 0 0 0 0 127 0" result="hardAlpha"/>
<feOffset dx="1" dy="1"/>
<feGaussianBlur stdDeviation="0.5"/>
<feComposite in2="hardAlpha" operator="out"/>
<feColorMatrix type="matrix" values="0 0 0 0 0 0 0 0 0 0 0 0 0 0 0 0 0 0 0.25 0"/>
<feBlend mode="normal" in2="BackgroundImageFix" result="effect1_dropShadow_28_467"/>
<feBlend mode="normal" in="SourceGraphic" in2="effect1_dropShadow_28_467" result="shape"/>
</filter>
<linearGradient id="paint0_linear_28_467" x1="23.8" y1="25.3" x2="30.9" y2="34.1" gradientUnits="userSpaceOnUse">
<stop stop-color="white"/>
<stop offset="1" stop-color="white" stop-opacity="0"/>
</linearGradient>
<linearGradient id="paint1_linear_28_467" x1="26.2001" y1="12.8" x2="26.16" y2="23.375" gradientUnits="userSpaceOnUse">
<stop stop-color="white"/>
<stop offset="1" stop-color="white" stop-opacity="0"/>
</linearGradient>
</defs>
</svg>
