<svg width="40" height="40" viewBox="0 0 40 40" fill="none" xmlns="http://www.w3.org/2000/svg">
<path d="M19.9599 38C19.4784 38 18.9984 37.874 18.5769 37.6295L14.1729 35.024C13.5159 34.6565 13.8369 34.526 14.0529 34.4495C14.9304 34.145 15.1074 34.0745 16.0449 33.5435C16.1424 33.488 16.2714 33.509 16.3719 33.569L19.7559 35.5775C19.8789 35.645 20.0514 35.645 20.1639 35.5775L33.3562 27.9636C33.4792 27.8931 33.5572 27.7521 33.5572 27.6066V12.3818C33.5572 12.2333 33.4777 12.0938 33.3517 12.0188L20.1654 4.41085C20.0439 4.34035 19.8819 4.34035 19.7589 4.41085L6.57548 12.0203C6.44798 12.0938 6.36698 12.2378 6.36698 12.3818V27.6066C6.36698 27.7521 6.44798 27.8901 6.57548 27.9591L10.1889 30.0471C12.1494 31.0281 13.3509 29.8731 13.3509 28.7121V13.6808C13.3509 13.4678 13.5219 13.3013 13.7349 13.3013H15.4074C15.6159 13.3013 15.7899 13.4693 15.7899 13.6808V28.7121C15.7899 31.3296 14.3649 32.8296 11.8839 32.8296C11.1219 32.8296 10.5204 32.8296 8.84496 32.0031L5.38299 30.0126C4.528 29.5191 4 28.5951 4 27.6066V12.3818C4 11.3933 4.5295 10.4693 5.38299 9.97729L18.5754 2.35437C19.4109 1.88188 20.5193 1.88188 21.3473 2.35437L34.5382 9.97729C35.3932 10.4708 35.9242 11.3933 35.9242 12.3818V27.6066C35.9242 28.5951 35.3932 29.5161 34.5382 30.0126L21.3473 37.6295C20.9273 37.874 20.4489 38 19.9599 38ZM30.6113 22.9897C30.6113 20.1397 28.6853 19.3807 24.6308 18.8452C20.5343 18.3037 20.1174 18.0232 20.1174 17.0647C20.1174 16.2727 20.4698 15.2152 23.5043 15.2152C26.2148 15.2152 27.2138 15.7987 27.6248 17.6257C27.6608 17.7982 27.8183 17.9242 27.9953 17.9242H29.7068C29.8133 17.9242 29.9138 17.8777 29.9858 17.8027C30.0578 17.7217 30.0968 17.6182 30.0863 17.5087C29.8208 14.3617 27.7298 12.8948 23.5043 12.8948C19.7424 12.8948 17.4984 14.4817 17.4984 17.1442C17.4984 20.0317 19.7304 20.8297 23.3408 21.1867C27.6608 21.6097 27.9953 22.2412 27.9953 23.0902C27.9953 24.5646 26.8118 25.1931 24.0323 25.1931C20.5418 25.1931 19.7739 24.3171 19.5159 22.5802C19.4859 22.3942 19.3269 22.2577 19.1364 22.2577H17.4309C17.2194 22.2577 17.0499 22.4257 17.0499 22.6372C17.0499 24.8601 18.2589 27.5091 24.0323 27.5091C28.2143 27.5106 30.6113 25.8651 30.6113 22.9897Z" fill="#339933" stroke="black" stroke-width="0.5"/>
</svg>
