<svg width="40" height="40" viewBox="0 0 40 40" fill="none" xmlns="http://www.w3.org/2000/svg">
<g clip-path="url(#clip0_28_477)">
<g filter="url(#filter0_d_28_477)">
<path d="M34.6172 29.4272L22.2362 3.13473C21.9257 2.47743 21.2777 2.04378 20.5433 2.00358C19.7899 1.95963 19.1149 2.32308 18.734 2.94153L5.30602 24.6906C4.89007 25.3683 4.89832 26.2043 5.32972 26.8739L11.8936 37.0418C12.2848 37.6487 12.9626 38 13.667 38C13.8668 38 14.0675 37.9718 14.2651 37.9135L33.3179 32.2782C33.9016 32.1056 34.3787 31.6926 34.6285 31.1453C34.8782 30.5979 34.8734 29.9711 34.6172 29.4272ZM31.8451 30.555L15.6791 35.3363C15.1853 35.4825 14.7119 35.0553 14.8157 34.5572L20.5909 6.89928C20.6989 6.38208 21.4138 6.29988 21.6394 6.77883L32.3326 29.4858C32.5342 29.9142 32.3041 30.4194 31.8451 30.555Z" fill="#2D3748" stroke="black" stroke-width="0.5"/>
</g>
</g>
<defs>
<filter id="filter0_d_28_477" x="4.75" y="1.75" width="32.3126" height="38.5" filterUnits="userSpaceOnUse" color-interpolation-filters="sRGB">
<feFlood flood-opacity="0" result="BackgroundImageFix"/>
<feColorMatrix in="SourceAlpha" type="matrix" values="0 0 0 0 0 0 0 0 0 0 0 0 0 0 0 0 0 0 127 0" result="hardAlpha"/>
<feOffset dx="1" dy="1"/>
<feGaussianBlur stdDeviation="0.5"/>
<feComposite in2="hardAlpha" operator="out"/>
<feColorMatrix type="matrix" values="0 0 0 0 0 0 0 0 0 0 0 0 0 0 0 0 0 0 0.25 0"/>
<feBlend mode="normal" in2="BackgroundImageFix" result="effect1_dropShadow_28_477"/>
<feBlend mode="normal" in="SourceGraphic" in2="effect1_dropShadow_28_477" result="shape"/>
</filter>
<clipPath id="clip0_28_477">
<rect width="40" height="40" fill="white"/>
</clipPath>
</defs>
</svg>
