<svg width="40" height="40" viewBox="0 0 40 40" fill="none" xmlns="http://www.w3.org/2000/svg">
<g clip-path="url(#clip0_28_162)">
<g filter="url(#filter0_d_28_162)">
<mask id="path-1-outside-1_28_162" maskUnits="userSpaceOnUse" x="1" y="3" width="38" height="34" fill="black">
<rect fill="white" x="1" y="3" width="38" height="34"/>
<path d="M23.3034 20.0037C23.3034 20.8913 22.9509 21.7425 22.3235 22.3702C21.696 22.998 20.845 23.3508 19.9574 23.3512C19.0696 23.3512 18.2182 22.9985 17.5904 22.3708C16.9626 21.743 16.61 20.8915 16.61 20.0037C16.61 19.1162 16.9624 18.265 17.5899 17.6373C18.2173 17.0095 19.0684 16.6567 19.9559 16.6563C20.8437 16.6563 21.6952 17.009 22.3229 17.6367C22.9507 18.2645 23.3034 19.1159 23.3034 20.0037ZM27.2677 4C25.2526 4 22.6162 5.43719 19.9499 7.92533C17.2851 5.45067 14.6473 4.02994 12.6337 4.02994C12.0199 4.02994 11.4615 4.16917 10.978 4.44613C8.91949 5.63331 8.45839 9.33258 9.52131 13.975C4.96421 15.3823 2 17.6324 2 20.0037C2 22.3841 4.97918 24.6402 9.54976 26.037C8.49581 30.6974 8.9659 34.4026 11.0289 35.5883C11.5079 35.8683 12.0618 36 12.6786 36C14.6922 36 17.3301 34.5628 19.9964 32.0717C22.6611 34.5478 25.299 35.9686 27.3126 35.9686C27.9264 35.9686 28.4848 35.8338 28.9683 35.5569C31.0253 34.3712 31.4879 30.6719 30.425 26.028C34.9656 24.6327 37.9298 22.3781 37.9298 20.0037C37.9298 17.6234 34.9506 15.3673 30.3801 13.9675C31.434 9.31163 30.9639 5.60337 28.901 4.41619C28.4249 4.14073 27.871 4.0015 27.2662 4H27.2677ZM27.2602 5.63181V5.6408C27.597 5.6408 27.868 5.70667 28.0955 5.83092C29.0926 6.40281 29.5252 8.57806 29.1884 11.3761C29.1076 12.0647 28.9758 12.7908 28.8141 13.5319C27.3769 13.1786 25.811 12.9076 24.1627 12.7324C23.1746 11.3776 22.1491 10.147 21.1162 9.0691C23.4995 6.85343 25.7376 5.6378 27.2617 5.63331L27.2602 5.63181ZM12.6337 5.66175C14.1488 5.66175 16.3974 6.87139 18.7867 9.07509C17.7597 10.153 16.7357 11.3761 15.7626 12.7309C14.1054 12.9061 12.5379 13.1771 11.1022 13.5364C10.9346 12.8028 10.8103 12.0932 10.722 11.4105C10.3776 8.61399 10.8028 6.44023 11.7909 5.86087C12.0753 5.72613 12.3897 5.67074 12.6337 5.66325V5.66175ZM19.9425 10.2278C20.6236 10.9285 21.3048 11.7129 21.9785 12.5693C21.3198 12.5393 20.6461 12.5184 19.9649 12.5184C19.2763 12.5184 18.5951 12.5333 17.9289 12.5693C18.5876 11.7129 19.2688 10.9285 19.9425 10.2263V10.2278ZM19.9649 14.1592C21.0728 14.1592 22.1761 14.2101 23.2615 14.2984C23.8693 15.1697 24.4621 16.0994 25.0325 17.0829C25.5894 18.0411 26.0954 19.0142 26.5565 19.9963C26.0954 20.9768 25.5894 21.9574 25.04 22.9156C24.4711 23.9036 23.8828 24.8438 23.2735 25.7151C22.1836 25.8094 21.0787 25.8618 19.9649 25.8618C18.8571 25.8618 17.7537 25.8094 16.6684 25.7226C16.0605 24.8513 15.4677 23.9201 14.8973 22.938C14.3404 21.9799 13.8344 21.0068 13.3733 20.0247C13.8269 19.0411 14.3404 18.059 14.8898 17.0994C15.4587 16.1113 16.0471 15.1742 16.6564 14.3029C17.7462 14.2071 18.8511 14.1562 19.9649 14.1562V14.1592ZM14.523 14.5394C14.1637 15.1038 13.8044 15.6817 13.4691 16.276C13.1323 16.8599 12.8179 17.4467 12.5185 18.0336C12.1217 17.0515 11.7849 16.0724 11.5064 15.1188C12.4646 14.8942 13.4751 14.6951 14.523 14.5409V14.5394ZM25.3918 14.5394C26.4323 14.6936 27.4353 14.8837 28.395 15.1188C28.1255 16.0649 27.7886 17.038 27.4069 18.0126C27.1075 17.4288 26.7931 16.8404 26.4487 16.2551C26.1119 15.6682 25.7526 15.0963 25.3933 14.5394H25.3918ZM29.9774 15.5499C30.7019 15.7745 31.3906 16.0245 32.0358 16.2955C34.6288 17.4033 36.3055 18.8525 36.3055 20.0022C36.298 21.152 34.6213 22.6072 32.0284 23.7075C31.3996 23.977 30.7109 24.2195 29.9998 24.4456C29.5806 23.0114 29.0327 21.5173 28.353 19.9843C29.0267 18.4618 29.5657 16.9752 29.9774 15.5469V15.5499ZM9.92402 15.5559C10.3402 16.9931 10.8896 18.4857 11.5708 20.0172C10.8971 21.5397 10.3552 23.0263 9.94498 24.4545C9.2204 24.23 8.53174 23.9785 7.89399 23.706C5.30105 22.6027 3.62433 21.152 3.62433 20.0022C3.62433 18.8525 5.30105 17.3943 7.89399 16.2955C8.52276 16.026 9.21142 15.7835 9.92402 15.5559ZM27.4069 21.9634C27.8036 22.947 28.1404 23.9276 28.4189 24.8797C27.4608 25.1148 26.4487 25.3139 25.4008 25.4636C25.7601 24.9022 26.1194 24.3228 26.4562 23.73C26.7931 23.1461 27.1075 22.5503 27.4084 21.9634H27.4069ZM12.5185 21.9934C12.8179 22.5802 13.1323 23.1656 13.4766 23.7524C13.8209 24.3363 14.1727 24.9082 14.532 25.4636C13.4916 25.3109 12.4885 25.1193 11.5289 24.8857C11.7984 23.9426 12.1367 22.9665 12.517 21.9919L12.5185 21.9934ZM28.8276 26.4651C28.9953 27.2032 29.127 27.9143 29.2079 28.5955C29.5522 31.392 29.127 33.5658 28.1389 34.1466C27.9189 34.2814 27.6329 34.3382 27.2961 34.3382C25.7811 34.3382 23.5324 33.1301 21.1431 30.9249C22.1701 29.847 23.1941 28.6254 24.1672 27.272C25.8245 27.0954 27.3919 26.8229 28.8276 26.4636V26.4651ZM11.1172 26.4801C12.5544 26.8304 14.1203 27.1014 15.7686 27.2765C16.7567 28.6314 17.7822 29.862 18.8152 30.9384C16.4273 33.1586 14.1862 34.3742 12.6622 34.3742C12.3328 34.3667 12.0544 34.2993 11.8343 34.1766C10.8372 33.6077 10.4046 31.4309 10.7414 28.6329C10.8223 27.9442 10.954 27.2196 11.1157 26.4801H11.1172ZM17.9439 27.4382C18.6026 27.4682 19.2763 27.4891 19.9574 27.4891C20.6461 27.4891 21.3273 27.4742 21.9935 27.4382C21.3347 28.2945 20.6536 29.0775 19.9799 29.7811C19.2987 29.0775 18.6175 28.2945 17.9439 27.4382Z"/>
</mask>
<path d="M23.3034 20.0037C23.3034 20.8913 22.9509 21.7425 22.3235 22.3702C21.696 22.998 20.845 23.3508 19.9574 23.3512C19.0696 23.3512 18.2182 22.9985 17.5904 22.3708C16.9626 21.743 16.61 20.8915 16.61 20.0037C16.61 19.1162 16.9624 18.265 17.5899 17.6373C18.2173 17.0095 19.0684 16.6567 19.9559 16.6563C20.8437 16.6563 21.6952 17.009 22.3229 17.6367C22.9507 18.2645 23.3034 19.1159 23.3034 20.0037ZM27.2677 4C25.2526 4 22.6162 5.43719 19.9499 7.92533C17.2851 5.45067 14.6473 4.02994 12.6337 4.02994C12.0199 4.02994 11.4615 4.16917 10.978 4.44613C8.91949 5.63331 8.45839 9.33258 9.52131 13.975C4.96421 15.3823 2 17.6324 2 20.0037C2 22.3841 4.97918 24.6402 9.54976 26.037C8.49581 30.6974 8.9659 34.4026 11.0289 35.5883C11.5079 35.8683 12.0618 36 12.6786 36C14.6922 36 17.3301 34.5628 19.9964 32.0717C22.6611 34.5478 25.299 35.9686 27.3126 35.9686C27.9264 35.9686 28.4848 35.8338 28.9683 35.5569C31.0253 34.3712 31.4879 30.6719 30.425 26.028C34.9656 24.6327 37.9298 22.3781 37.9298 20.0037C37.9298 17.6234 34.9506 15.3673 30.3801 13.9675C31.434 9.31163 30.9639 5.60337 28.901 4.41619C28.4249 4.14073 27.871 4.0015 27.2662 4H27.2677ZM27.2602 5.63181V5.6408C27.597 5.6408 27.868 5.70667 28.0955 5.83092C29.0926 6.40281 29.5252 8.57806 29.1884 11.3761C29.1076 12.0647 28.9758 12.7908 28.8141 13.5319C27.3769 13.1786 25.811 12.9076 24.1627 12.7324C23.1746 11.3776 22.1491 10.147 21.1162 9.0691C23.4995 6.85343 25.7376 5.6378 27.2617 5.63331L27.2602 5.63181ZM12.6337 5.66175C14.1488 5.66175 16.3974 6.87139 18.7867 9.07509C17.7597 10.153 16.7357 11.3761 15.7626 12.7309C14.1054 12.9061 12.5379 13.1771 11.1022 13.5364C10.9346 12.8028 10.8103 12.0932 10.722 11.4105C10.3776 8.61399 10.8028 6.44023 11.7909 5.86087C12.0753 5.72613 12.3897 5.67074 12.6337 5.66325V5.66175ZM19.9425 10.2278C20.6236 10.9285 21.3048 11.7129 21.9785 12.5693C21.3198 12.5393 20.6461 12.5184 19.9649 12.5184C19.2763 12.5184 18.5951 12.5333 17.9289 12.5693C18.5876 11.7129 19.2688 10.9285 19.9425 10.2263V10.2278ZM19.9649 14.1592C21.0728 14.1592 22.1761 14.2101 23.2615 14.2984C23.8693 15.1697 24.4621 16.0994 25.0325 17.0829C25.5894 18.0411 26.0954 19.0142 26.5565 19.9963C26.0954 20.9768 25.5894 21.9574 25.04 22.9156C24.4711 23.9036 23.8828 24.8438 23.2735 25.7151C22.1836 25.8094 21.0787 25.8618 19.9649 25.8618C18.8571 25.8618 17.7537 25.8094 16.6684 25.7226C16.0605 24.8513 15.4677 23.9201 14.8973 22.938C14.3404 21.9799 13.8344 21.0068 13.3733 20.0247C13.8269 19.0411 14.3404 18.059 14.8898 17.0994C15.4587 16.1113 16.0471 15.1742 16.6564 14.3029C17.7462 14.2071 18.8511 14.1562 19.9649 14.1562V14.1592ZM14.523 14.5394C14.1637 15.1038 13.8044 15.6817 13.4691 16.276C13.1323 16.8599 12.8179 17.4467 12.5185 18.0336C12.1217 17.0515 11.7849 16.0724 11.5064 15.1188C12.4646 14.8942 13.4751 14.6951 14.523 14.5409V14.5394ZM25.3918 14.5394C26.4323 14.6936 27.4353 14.8837 28.395 15.1188C28.1255 16.0649 27.7886 17.038 27.4069 18.0126C27.1075 17.4288 26.7931 16.8404 26.4487 16.2551C26.1119 15.6682 25.7526 15.0963 25.3933 14.5394H25.3918ZM29.9774 15.5499C30.7019 15.7745 31.3906 16.0245 32.0358 16.2955C34.6288 17.4033 36.3055 18.8525 36.3055 20.0022C36.298 21.152 34.6213 22.6072 32.0284 23.7075C31.3996 23.977 30.7109 24.2195 29.9998 24.4456C29.5806 23.0114 29.0327 21.5173 28.353 19.9843C29.0267 18.4618 29.5657 16.9752 29.9774 15.5469V15.5499ZM9.92402 15.5559C10.3402 16.9931 10.8896 18.4857 11.5708 20.0172C10.8971 21.5397 10.3552 23.0263 9.94498 24.4545C9.2204 24.23 8.53174 23.9785 7.89399 23.706C5.30105 22.6027 3.62433 21.152 3.62433 20.0022C3.62433 18.8525 5.30105 17.3943 7.89399 16.2955C8.52276 16.026 9.21142 15.7835 9.92402 15.5559ZM27.4069 21.9634C27.8036 22.947 28.1404 23.9276 28.4189 24.8797C27.4608 25.1148 26.4487 25.3139 25.4008 25.4636C25.7601 24.9022 26.1194 24.3228 26.4562 23.73C26.7931 23.1461 27.1075 22.5503 27.4084 21.9634H27.4069ZM12.5185 21.9934C12.8179 22.5802 13.1323 23.1656 13.4766 23.7524C13.8209 24.3363 14.1727 24.9082 14.532 25.4636C13.4916 25.3109 12.4885 25.1193 11.5289 24.8857C11.7984 23.9426 12.1367 22.9665 12.517 21.9919L12.5185 21.9934ZM28.8276 26.4651C28.9953 27.2032 29.127 27.9143 29.2079 28.5955C29.5522 31.392 29.127 33.5658 28.1389 34.1466C27.9189 34.2814 27.6329 34.3382 27.2961 34.3382C25.7811 34.3382 23.5324 33.1301 21.1431 30.9249C22.1701 29.847 23.1941 28.6254 24.1672 27.272C25.8245 27.0954 27.3919 26.8229 28.8276 26.4636V26.4651ZM11.1172 26.4801C12.5544 26.8304 14.1203 27.1014 15.7686 27.2765C16.7567 28.6314 17.7822 29.862 18.8152 30.9384C16.4273 33.1586 14.1862 34.3742 12.6622 34.3742C12.3328 34.3667 12.0544 34.2993 11.8343 34.1766C10.8372 33.6077 10.4046 31.4309 10.7414 28.6329C10.8223 27.9442 10.954 27.2196 11.1157 26.4801H11.1172ZM17.9439 27.4382C18.6026 27.4682 19.2763 27.4891 19.9574 27.4891C20.6461 27.4891 21.3273 27.4742 21.9935 27.4382C21.3347 28.2945 20.6536 29.0775 19.9799 29.7811C19.2987 29.0775 18.6175 28.2945 17.9439 27.4382Z" fill="#61DAFB"/>
<path d="M23.3034 20.0037C23.3034 20.8913 22.9509 21.7425 22.3235 22.3702C21.696 22.998 20.845 23.3508 19.9574 23.3512C19.0696 23.3512 18.2182 22.9985 17.5904 22.3708C16.9626 21.743 16.61 20.8915 16.61 20.0037C16.61 19.1162 16.9624 18.265 17.5899 17.6373C18.2173 17.0095 19.0684 16.6567 19.9559 16.6563C20.8437 16.6563 21.6952 17.009 22.3229 17.6367C22.9507 18.2645 23.3034 19.1159 23.3034 20.0037ZM27.2677 4C25.2526 4 22.6162 5.43719 19.9499 7.92533C17.2851 5.45067 14.6473 4.02994 12.6337 4.02994C12.0199 4.02994 11.4615 4.16917 10.978 4.44613C8.91949 5.63331 8.45839 9.33258 9.52131 13.975C4.96421 15.3823 2 17.6324 2 20.0037C2 22.3841 4.97918 24.6402 9.54976 26.037C8.49581 30.6974 8.9659 34.4026 11.0289 35.5883C11.5079 35.8683 12.0618 36 12.6786 36C14.6922 36 17.3301 34.5628 19.9964 32.0717C22.6611 34.5478 25.299 35.9686 27.3126 35.9686C27.9264 35.9686 28.4848 35.8338 28.9683 35.5569C31.0253 34.3712 31.4879 30.6719 30.425 26.028C34.9656 24.6327 37.9298 22.3781 37.9298 20.0037C37.9298 17.6234 34.9506 15.3673 30.3801 13.9675C31.434 9.31163 30.9639 5.60337 28.901 4.41619C28.4249 4.14073 27.871 4.0015 27.2662 4H27.2677ZM27.2602 5.63181V5.6408C27.597 5.6408 27.868 5.70667 28.0955 5.83092C29.0926 6.40281 29.5252 8.57806 29.1884 11.3761C29.1076 12.0647 28.9758 12.7908 28.8141 13.5319C27.3769 13.1786 25.811 12.9076 24.1627 12.7324C23.1746 11.3776 22.1491 10.147 21.1162 9.0691C23.4995 6.85343 25.7376 5.6378 27.2617 5.63331L27.2602 5.63181ZM12.6337 5.66175C14.1488 5.66175 16.3974 6.87139 18.7867 9.07509C17.7597 10.153 16.7357 11.3761 15.7626 12.7309C14.1054 12.9061 12.5379 13.1771 11.1022 13.5364C10.9346 12.8028 10.8103 12.0932 10.722 11.4105C10.3776 8.61399 10.8028 6.44023 11.7909 5.86087C12.0753 5.72613 12.3897 5.67074 12.6337 5.66325V5.66175ZM19.9425 10.2278C20.6236 10.9285 21.3048 11.7129 21.9785 12.5693C21.3198 12.5393 20.6461 12.5184 19.9649 12.5184C19.2763 12.5184 18.5951 12.5333 17.9289 12.5693C18.5876 11.7129 19.2688 10.9285 19.9425 10.2263V10.2278ZM19.9649 14.1592C21.0728 14.1592 22.1761 14.2101 23.2615 14.2984C23.8693 15.1697 24.4621 16.0994 25.0325 17.0829C25.5894 18.0411 26.0954 19.0142 26.5565 19.9963C26.0954 20.9768 25.5894 21.9574 25.04 22.9156C24.4711 23.9036 23.8828 24.8438 23.2735 25.7151C22.1836 25.8094 21.0787 25.8618 19.9649 25.8618C18.8571 25.8618 17.7537 25.8094 16.6684 25.7226C16.0605 24.8513 15.4677 23.9201 14.8973 22.938C14.3404 21.9799 13.8344 21.0068 13.3733 20.0247C13.8269 19.0411 14.3404 18.059 14.8898 17.0994C15.4587 16.1113 16.0471 15.1742 16.6564 14.3029C17.7462 14.2071 18.8511 14.1562 19.9649 14.1562V14.1592ZM14.523 14.5394C14.1637 15.1038 13.8044 15.6817 13.4691 16.276C13.1323 16.8599 12.8179 17.4467 12.5185 18.0336C12.1217 17.0515 11.7849 16.0724 11.5064 15.1188C12.4646 14.8942 13.4751 14.6951 14.523 14.5409V14.5394ZM25.3918 14.5394C26.4323 14.6936 27.4353 14.8837 28.395 15.1188C28.1255 16.0649 27.7886 17.038 27.4069 18.0126C27.1075 17.4288 26.7931 16.8404 26.4487 16.2551C26.1119 15.6682 25.7526 15.0963 25.3933 14.5394H25.3918ZM29.9774 15.5499C30.7019 15.7745 31.3906 16.0245 32.0358 16.2955C34.6288 17.4033 36.3055 18.8525 36.3055 20.0022C36.298 21.152 34.6213 22.6072 32.0284 23.7075C31.3996 23.977 30.7109 24.2195 29.9998 24.4456C29.5806 23.0114 29.0327 21.5173 28.353 19.9843C29.0267 18.4618 29.5657 16.9752 29.9774 15.5469V15.5499ZM9.92402 15.5559C10.3402 16.9931 10.8896 18.4857 11.5708 20.0172C10.8971 21.5397 10.3552 23.0263 9.94498 24.4545C9.2204 24.23 8.53174 23.9785 7.89399 23.706C5.30105 22.6027 3.62433 21.152 3.62433 20.0022C3.62433 18.8525 5.30105 17.3943 7.89399 16.2955C8.52276 16.026 9.21142 15.7835 9.92402 15.5559ZM27.4069 21.9634C27.8036 22.947 28.1404 23.9276 28.4189 24.8797C27.4608 25.1148 26.4487 25.3139 25.4008 25.4636C25.7601 24.9022 26.1194 24.3228 26.4562 23.73C26.7931 23.1461 27.1075 22.5503 27.4084 21.9634H27.4069ZM12.5185 21.9934C12.8179 22.5802 13.1323 23.1656 13.4766 23.7524C13.8209 24.3363 14.1727 24.9082 14.532 25.4636C13.4916 25.3109 12.4885 25.1193 11.5289 24.8857C11.7984 23.9426 12.1367 22.9665 12.517 21.9919L12.5185 21.9934ZM28.8276 26.4651C28.9953 27.2032 29.127 27.9143 29.2079 28.5955C29.5522 31.392 29.127 33.5658 28.1389 34.1466C27.9189 34.2814 27.6329 34.3382 27.2961 34.3382C25.7811 34.3382 23.5324 33.1301 21.1431 30.9249C22.1701 29.847 23.1941 28.6254 24.1672 27.272C25.8245 27.0954 27.3919 26.8229 28.8276 26.4636V26.4651ZM11.1172 26.4801C12.5544 26.8304 14.1203 27.1014 15.7686 27.2765C16.7567 28.6314 17.7822 29.862 18.8152 30.9384C16.4273 33.1586 14.1862 34.3742 12.6622 34.3742C12.3328 34.3667 12.0544 34.2993 11.8343 34.1766C10.8372 33.6077 10.4046 31.4309 10.7414 28.6329C10.8223 27.9442 10.954 27.2196 11.1157 26.4801H11.1172ZM17.9439 27.4382C18.6026 27.4682 19.2763 27.4891 19.9574 27.4891C20.6461 27.4891 21.3273 27.4742 21.9935 27.4382C21.3347 28.2945 20.6536 29.0775 19.9799 29.7811C19.2987 29.0775 18.6175 28.2945 17.9439 27.4382Z" stroke="black" stroke-width="2" mask="url(#path-1-outside-1_28_162)"/>
</g>
</g>
<defs>
<filter id="filter0_d_28_162" x="1" y="3" width="39.9298" height="36" filterUnits="userSpaceOnUse" color-interpolation-filters="sRGB">
<feFlood flood-opacity="0" result="BackgroundImageFix"/>
<feColorMatrix in="SourceAlpha" type="matrix" values="0 0 0 0 0 0 0 0 0 0 0 0 0 0 0 0 0 0 127 0" result="hardAlpha"/>
<feOffset dx="1" dy="1"/>
<feGaussianBlur stdDeviation="0.5"/>
<feComposite in2="hardAlpha" operator="out"/>
<feColorMatrix type="matrix" values="0 0 0 0 0 0 0 0 0 0 0 0 0 0 0 0 0 0 0.25 0"/>
<feBlend mode="normal" in2="BackgroundImageFix" result="effect1_dropShadow_28_162"/>
<feBlend mode="normal" in="SourceGraphic" in2="effect1_dropShadow_28_162" result="shape"/>
</filter>
<clipPath id="clip0_28_162">
<rect width="40" height="40" fill="white"/>
</clipPath>
</defs>
</svg>
