<svg width="40" height="40" viewBox="0 0 40 40" fill="none" xmlns="http://www.w3.org/2000/svg">
<g clip-path="url(#clip0_28_391)">
<g filter="url(#filter0_d_28_391)">
<path d="M27.275 27.1421C28.6743 26.9972 29.736 25.7909 29.6877 24.3431C29.6395 22.8954 28.433 21.7372 26.9854 21.7372H26.889C25.3929 21.7855 24.2348 23.0402 24.2831 24.5361C24.3314 25.26 24.6208 25.8873 25.0551 26.3216C23.4145 29.555 20.9052 31.9195 17.1413 33.8981C14.5837 35.2493 11.9297 35.7319 9.27573 35.3941C7.10418 35.1046 5.41523 34.1395 4.35345 32.5468C2.80937 30.1823 2.66465 27.6246 3.96758 25.067C4.88449 23.2332 6.33199 21.882 7.2489 21.2063C7.05589 20.579 6.7663 19.5174 6.62158 18.7454C-0.375513 23.8124 0.348386 30.6649 2.47164 33.8981C4.06401 36.3111 7.29719 37.807 10.8681 37.807C11.8331 37.807 12.7982 37.7104 13.7634 37.4693C19.9402 36.2628 24.621 32.5951 27.275 27.1421ZM35.768 21.1582C32.1005 16.8633 26.696 14.4987 20.5192 14.4987H19.7471C19.3128 13.6301 18.3959 13.0509 17.3826 13.0509H17.286C15.7902 13.0992 14.6322 14.3538 14.6803 15.8499C14.7286 17.2976 15.9349 18.4558 17.3826 18.4558H17.479C18.5407 18.4075 19.4576 17.7319 19.8436 16.815H20.7122C24.3797 16.815 27.854 17.8766 30.9908 19.9517C33.4035 21.5442 35.1407 23.6193 36.1057 26.1286C36.9261 28.1555 36.8778 30.134 36.0092 31.8231C34.6581 34.3807 32.3901 35.7802 29.3982 35.7802C27.468 35.7802 25.6343 35.201 24.6691 34.7667C24.1384 35.2493 23.1732 36.0213 22.4976 36.5041C24.5727 37.4691 26.696 38 28.7226 38C33.3552 38 36.7814 35.4423 38.0843 32.8847C39.4836 30.0857 39.3871 25.26 35.768 21.1582ZM11.2541 27.9623C11.3024 29.4101 12.5088 30.5682 13.9564 30.5682H14.053C15.5489 30.52 16.707 29.2652 16.6587 27.7693C16.6106 26.3215 15.4041 25.1634 13.9564 25.1634H13.86C13.7634 25.1634 13.6185 25.1634 13.5222 25.2116C11.5437 21.9301 10.7234 18.3592 11.013 14.4985C11.2058 11.6031 12.171 9.09367 13.86 7.01856C15.2593 5.23303 17.9616 4.36441 19.7954 4.31627C24.9104 4.21969 27.0818 10.5896 27.2267 13.1473C27.854 13.292 28.9156 13.6299 29.6395 13.8712C29.0604 6.05365 24.2348 2 19.6024 2C15.2593 2 11.2541 5.13675 9.6616 9.76943C7.44191 15.9463 8.88956 21.882 11.5918 26.5629C11.3507 26.9007 11.2058 27.4316 11.2541 27.9624V27.9623Z" fill="#764ABC" stroke="black" stroke-width="0.5"/>
</g>
</g>
<defs>
<filter id="filter0_d_28_391" x="0.750244" y="1.75" width="40.4205" height="38.5" filterUnits="userSpaceOnUse" color-interpolation-filters="sRGB">
<feFlood flood-opacity="0" result="BackgroundImageFix"/>
<feColorMatrix in="SourceAlpha" type="matrix" values="0 0 0 0 0 0 0 0 0 0 0 0 0 0 0 0 0 0 127 0" result="hardAlpha"/>
<feOffset dx="1" dy="1"/>
<feGaussianBlur stdDeviation="0.5"/>
<feComposite in2="hardAlpha" operator="out"/>
<feColorMatrix type="matrix" values="0 0 0 0 0 0 0 0 0 0 0 0 0 0 0 0 0 0 0.25 0"/>
<feBlend mode="normal" in2="BackgroundImageFix" result="effect1_dropShadow_28_391"/>
<feBlend mode="normal" in="SourceGraphic" in2="effect1_dropShadow_28_391" result="shape"/>
</filter>
<clipPath id="clip0_28_391">
<rect width="40" height="40" fill="white"/>
</clipPath>
</defs>
</svg>
