<svg width="40" height="40" viewBox="0 0 40 40" fill="none" xmlns="http://www.w3.org/2000/svg">
<g filter="url(#filter0_d_28_248)">
<mask id="path-1-outside-1_28_248" maskUnits="userSpaceOnUse" x="2" y="7" width="36" height="27" fill="black">
<rect fill="white" x="2" y="7" width="36" height="27"/>
<path d="M31.5628 21.7815C30.4433 21.7878 29.4739 22.0567 28.6609 22.457C28.3607 21.8628 28.0605 21.3437 28.0105 20.956C27.9542 20.5057 27.8854 20.2305 27.9542 19.6927C28.0229 19.1548 28.3356 18.3918 28.3356 18.3292C28.3293 18.2729 28.2668 17.9978 27.6227 17.9915C26.9786 17.9852 26.4219 18.1166 26.3594 18.2854C26.2968 18.4543 26.1717 18.8421 26.0904 19.2423C25.9778 19.8302 24.8021 21.9128 24.1329 23.0073C23.914 22.582 23.7264 22.2068 23.6888 21.9065C23.6326 21.4563 23.5637 21.181 23.6326 20.6432C23.7014 20.1053 24.0141 19.3424 24.0141 19.2798C24.0078 19.2236 23.9453 18.9484 23.3012 18.9421C22.6569 18.9359 22.1004 19.0672 22.0378 19.2361C21.9753 19.4049 21.9065 19.8052 21.7689 20.1929C21.6375 20.5807 20.074 24.058 19.6675 24.9648C19.4611 25.4276 19.2798 25.7966 19.1484 26.0468C19.017 26.2969 19.1421 26.0655 19.1296 26.0905C19.017 26.3032 18.9545 26.422 18.9545 26.422V26.4283C18.867 26.5847 18.7731 26.7347 18.7293 26.7347C18.698 26.7347 18.6355 26.3157 18.7418 25.7404C18.9732 24.5333 19.5361 22.6509 19.5299 22.5821C19.5299 22.5508 19.6361 22.2193 19.1671 22.0505C18.7105 21.8816 18.548 22.163 18.5104 22.163C18.4729 22.163 18.4416 22.2631 18.4416 22.2631C18.4416 22.2631 18.9482 20.143 17.4722 20.143C16.5466 20.143 15.2708 21.1499 14.6391 22.0693C14.2389 22.2882 13.3883 22.7509 12.4877 23.2451C12.1437 23.4327 11.7873 23.6328 11.4495 23.8142L11.3808 23.739C9.59214 21.8315 6.28372 20.4806 6.42131 17.9164C6.47134 16.9846 6.79656 14.5267 12.7755 11.5498C17.6725 9.11069 21.5938 9.77988 22.2754 11.2683C23.2448 13.3947 20.1803 17.3473 15.0895 17.9164C13.1508 18.1353 12.1313 17.3848 11.8749 17.1034C11.606 16.8095 11.5685 16.797 11.4684 16.8533C11.3058 16.9408 11.4059 17.2035 11.4684 17.3598C11.6185 17.7538 12.2439 18.4543 13.3071 18.8045C14.2389 19.111 16.5155 19.2798 19.2673 18.2166C22.3505 17.0221 24.7584 13.7074 24.0517 10.9369C23.3324 8.11629 18.6544 7.19068 14.2327 8.76046C11.5997 9.69857 8.74783 11.162 6.69649 13.082C4.2574 15.3585 3.86964 17.3473 4.03225 18.1729C4.60143 21.1185 8.66028 23.0385 10.2863 24.4582C10.205 24.5019 10.13 24.5457 10.0612 24.5833C9.24816 24.9835 6.15239 26.6034 5.37688 28.3169C4.50131 30.2557 5.51447 31.6504 6.18991 31.8381C8.27878 32.4197 10.4177 31.3752 11.5747 29.6554C12.7254 27.9355 12.5878 25.7028 12.0562 24.6834L12.0374 24.6458L12.6753 24.2706C13.0882 24.0267 13.4947 23.8015 13.8511 23.6076C13.651 24.1517 13.5071 24.7959 13.4321 25.734C13.3446 26.8348 13.7949 28.2607 14.389 28.8235C14.6517 29.0674 14.9644 29.0737 15.1583 29.0737C15.8462 29.0737 16.1589 28.5045 16.5029 27.8229C16.9282 26.9911 17.3034 26.0279 17.3034 26.0279C17.3034 26.0279 16.8344 28.6359 18.1165 28.6359C18.5855 28.6359 19.0546 28.0292 19.2672 27.7165V27.7228C19.2672 27.7228 19.2797 27.704 19.3047 27.6603C19.331 27.6215 19.356 27.5819 19.3798 27.5415V27.529C19.5674 27.2038 19.9864 26.4595 20.6118 25.2275C21.4186 23.6389 22.1941 21.6501 22.1941 21.6501C22.1941 21.6501 22.2692 22.138 22.5006 22.9385C22.6381 23.4139 22.9383 23.9329 23.1697 24.4395C22.9821 24.7021 22.8695 24.8523 22.8695 24.8523L22.8758 24.8586C22.7257 25.0587 22.5568 25.2714 22.3817 25.484C21.7438 26.247 20.9808 27.1163 20.8808 27.3665C20.7619 27.6604 20.787 27.8793 21.0184 28.0545C21.1872 28.1795 21.4874 28.2045 21.8064 28.1795C22.3818 28.1419 22.782 27.9982 22.9821 27.9105C23.2948 27.798 23.6513 27.6291 23.9953 27.379C24.6207 26.9162 25.0022 26.2595 24.9647 25.384C24.9459 24.9024 24.7896 24.4271 24.5957 23.9768C24.652 23.8955 24.7083 23.8141 24.7646 23.7266C25.7527 22.2819 26.5157 20.6934 26.5157 20.6934C26.5157 20.6934 26.5907 21.1812 26.8222 21.9817C26.9409 22.3882 27.1786 22.8323 27.3913 23.2701C26.4657 24.0269 25.884 24.9025 25.6839 25.4778C25.3149 26.541 25.6026 27.0226 26.1467 27.1352C26.3906 27.1852 26.7409 27.0726 27.0035 26.9601C27.3287 26.8537 27.7227 26.6723 28.0855 26.4034C28.7109 25.9406 29.3113 25.2965 29.28 24.4271C29.2612 24.0269 29.1549 23.6329 29.0111 23.2576C29.7991 22.9324 30.8185 22.7448 32.1131 22.9011C34.8962 23.2264 35.4465 24.965 35.3403 25.6905C35.234 26.416 34.6523 26.8162 34.4584 26.9413C34.2645 27.0601 34.202 27.104 34.2207 27.1915C34.2458 27.3228 34.3333 27.3165 34.5022 27.2916C34.7336 27.254 35.9656 26.6974 36.0157 25.3591C36.0907 23.639 34.4584 21.7628 31.5628 21.7815ZM10.0987 29.0175C9.17937 30.0244 7.88477 30.4059 7.33441 30.0807C6.74027 29.7367 6.97161 28.2545 8.10366 27.185C8.79161 26.5346 9.68595 25.9342 10.2738 25.5652C10.4052 25.4839 10.6053 25.3651 10.843 25.2212C10.8805 25.1963 10.9055 25.1837 10.9055 25.1837C10.9493 25.1587 10.9993 25.1274 11.0493 25.0961C11.4684 26.6221 11.0681 27.9605 10.0987 29.0175ZM16.8219 24.4457C16.5029 25.2275 15.8275 27.235 15.4209 27.1225C15.0707 27.0287 14.8581 25.5089 15.3521 24.0079C15.6023 23.2511 16.1339 22.3506 16.4466 22.0003C16.9532 21.4374 17.5035 21.2498 17.6411 21.4812C17.8038 21.7815 17.022 23.9579 16.8219 24.4457ZM22.3692 27.0975C22.2317 27.1663 22.1066 27.2163 22.0503 27.1788C22.0065 27.1538 22.1065 27.06 22.1065 27.06C22.1065 27.06 22.8007 26.3158 23.0759 25.9718C23.2322 25.7717 23.4199 25.5403 23.62 25.2776V25.3526C23.6201 26.2531 22.757 26.8535 22.3692 27.0975ZM26.647 26.1218C26.5469 26.0468 26.5595 25.8154 26.8971 25.0899C27.0285 24.8022 27.3287 24.3206 27.8478 23.8641C27.9103 24.0517 27.9479 24.233 27.9416 24.4019C27.9354 25.5277 27.1349 25.9467 26.647 26.1218Z"/>
</mask>
<path d="M31.5628 21.7815C30.4433 21.7878 29.4739 22.0567 28.6609 22.457C28.3607 21.8628 28.0605 21.3437 28.0105 20.956C27.9542 20.5057 27.8854 20.2305 27.9542 19.6927C28.0229 19.1548 28.3356 18.3918 28.3356 18.3292C28.3293 18.2729 28.2668 17.9978 27.6227 17.9915C26.9786 17.9852 26.4219 18.1166 26.3594 18.2854C26.2968 18.4543 26.1717 18.8421 26.0904 19.2423C25.9778 19.8302 24.8021 21.9128 24.1329 23.0073C23.914 22.582 23.7264 22.2068 23.6888 21.9065C23.6326 21.4563 23.5637 21.181 23.6326 20.6432C23.7014 20.1053 24.0141 19.3424 24.0141 19.2798C24.0078 19.2236 23.9453 18.9484 23.3012 18.9421C22.6569 18.9359 22.1004 19.0672 22.0378 19.2361C21.9753 19.4049 21.9065 19.8052 21.7689 20.1929C21.6375 20.5807 20.074 24.058 19.6675 24.9648C19.4611 25.4276 19.2798 25.7966 19.1484 26.0468C19.017 26.2969 19.1421 26.0655 19.1296 26.0905C19.017 26.3032 18.9545 26.422 18.9545 26.422V26.4283C18.867 26.5847 18.7731 26.7347 18.7293 26.7347C18.698 26.7347 18.6355 26.3157 18.7418 25.7404C18.9732 24.5333 19.5361 22.6509 19.5299 22.5821C19.5299 22.5508 19.6361 22.2193 19.1671 22.0505C18.7105 21.8816 18.548 22.163 18.5104 22.163C18.4729 22.163 18.4416 22.2631 18.4416 22.2631C18.4416 22.2631 18.9482 20.143 17.4722 20.143C16.5466 20.143 15.2708 21.1499 14.6391 22.0693C14.2389 22.2882 13.3883 22.7509 12.4877 23.2451C12.1437 23.4327 11.7873 23.6328 11.4495 23.8142L11.3808 23.739C9.59214 21.8315 6.28372 20.4806 6.42131 17.9164C6.47134 16.9846 6.79656 14.5267 12.7755 11.5498C17.6725 9.11069 21.5938 9.77988 22.2754 11.2683C23.2448 13.3947 20.1803 17.3473 15.0895 17.9164C13.1508 18.1353 12.1313 17.3848 11.8749 17.1034C11.606 16.8095 11.5685 16.797 11.4684 16.8533C11.3058 16.9408 11.4059 17.2035 11.4684 17.3598C11.6185 17.7538 12.2439 18.4543 13.3071 18.8045C14.2389 19.111 16.5155 19.2798 19.2673 18.2166C22.3505 17.0221 24.7584 13.7074 24.0517 10.9369C23.3324 8.11629 18.6544 7.19068 14.2327 8.76046C11.5997 9.69857 8.74783 11.162 6.69649 13.082C4.2574 15.3585 3.86964 17.3473 4.03225 18.1729C4.60143 21.1185 8.66028 23.0385 10.2863 24.4582C10.205 24.5019 10.13 24.5457 10.0612 24.5833C9.24816 24.9835 6.15239 26.6034 5.37688 28.3169C4.50131 30.2557 5.51447 31.6504 6.18991 31.8381C8.27878 32.4197 10.4177 31.3752 11.5747 29.6554C12.7254 27.9355 12.5878 25.7028 12.0562 24.6834L12.0374 24.6458L12.6753 24.2706C13.0882 24.0267 13.4947 23.8015 13.8511 23.6076C13.651 24.1517 13.5071 24.7959 13.4321 25.734C13.3446 26.8348 13.7949 28.2607 14.389 28.8235C14.6517 29.0674 14.9644 29.0737 15.1583 29.0737C15.8462 29.0737 16.1589 28.5045 16.5029 27.8229C16.9282 26.9911 17.3034 26.0279 17.3034 26.0279C17.3034 26.0279 16.8344 28.6359 18.1165 28.6359C18.5855 28.6359 19.0546 28.0292 19.2672 27.7165V27.7228C19.2672 27.7228 19.2797 27.704 19.3047 27.6603C19.331 27.6215 19.356 27.5819 19.3798 27.5415V27.529C19.5674 27.2038 19.9864 26.4595 20.6118 25.2275C21.4186 23.6389 22.1941 21.6501 22.1941 21.6501C22.1941 21.6501 22.2692 22.138 22.5006 22.9385C22.6381 23.4139 22.9383 23.9329 23.1697 24.4395C22.9821 24.7021 22.8695 24.8523 22.8695 24.8523L22.8758 24.8586C22.7257 25.0587 22.5568 25.2714 22.3817 25.484C21.7438 26.247 20.9808 27.1163 20.8808 27.3665C20.7619 27.6604 20.787 27.8793 21.0184 28.0545C21.1872 28.1795 21.4874 28.2045 21.8064 28.1795C22.3818 28.1419 22.782 27.9982 22.9821 27.9105C23.2948 27.798 23.6513 27.6291 23.9953 27.379C24.6207 26.9162 25.0022 26.2595 24.9647 25.384C24.9459 24.9024 24.7896 24.4271 24.5957 23.9768C24.652 23.8955 24.7083 23.8141 24.7646 23.7266C25.7527 22.2819 26.5157 20.6934 26.5157 20.6934C26.5157 20.6934 26.5907 21.1812 26.8222 21.9817C26.9409 22.3882 27.1786 22.8323 27.3913 23.2701C26.4657 24.0269 25.884 24.9025 25.6839 25.4778C25.3149 26.541 25.6026 27.0226 26.1467 27.1352C26.3906 27.1852 26.7409 27.0726 27.0035 26.9601C27.3287 26.8537 27.7227 26.6723 28.0855 26.4034C28.7109 25.9406 29.3113 25.2965 29.28 24.4271C29.2612 24.0269 29.1549 23.6329 29.0111 23.2576C29.7991 22.9324 30.8185 22.7448 32.1131 22.9011C34.8962 23.2264 35.4465 24.965 35.3403 25.6905C35.234 26.416 34.6523 26.8162 34.4584 26.9413C34.2645 27.0601 34.202 27.104 34.2207 27.1915C34.2458 27.3228 34.3333 27.3165 34.5022 27.2916C34.7336 27.254 35.9656 26.6974 36.0157 25.3591C36.0907 23.639 34.4584 21.7628 31.5628 21.7815ZM10.0987 29.0175C9.17937 30.0244 7.88477 30.4059 7.33441 30.0807C6.74027 29.7367 6.97161 28.2545 8.10366 27.185C8.79161 26.5346 9.68595 25.9342 10.2738 25.5652C10.4052 25.4839 10.6053 25.3651 10.843 25.2212C10.8805 25.1963 10.9055 25.1837 10.9055 25.1837C10.9493 25.1587 10.9993 25.1274 11.0493 25.0961C11.4684 26.6221 11.0681 27.9605 10.0987 29.0175ZM16.8219 24.4457C16.5029 25.2275 15.8275 27.235 15.4209 27.1225C15.0707 27.0287 14.8581 25.5089 15.3521 24.0079C15.6023 23.2511 16.1339 22.3506 16.4466 22.0003C16.9532 21.4374 17.5035 21.2498 17.6411 21.4812C17.8038 21.7815 17.022 23.9579 16.8219 24.4457ZM22.3692 27.0975C22.2317 27.1663 22.1066 27.2163 22.0503 27.1788C22.0065 27.1538 22.1065 27.06 22.1065 27.06C22.1065 27.06 22.8007 26.3158 23.0759 25.9718C23.2322 25.7717 23.4199 25.5403 23.62 25.2776V25.3526C23.6201 26.2531 22.757 26.8535 22.3692 27.0975ZM26.647 26.1218C26.5469 26.0468 26.5595 25.8154 26.8971 25.0899C27.0285 24.8022 27.3287 24.3206 27.8478 23.8641C27.9103 24.0517 27.9479 24.233 27.9416 24.4019C27.9354 25.5277 27.1349 25.9467 26.647 26.1218Z" fill="#CF649A"/>
<path d="M31.5628 21.7815C30.4433 21.7878 29.4739 22.0567 28.6609 22.457C28.3607 21.8628 28.0605 21.3437 28.0105 20.956C27.9542 20.5057 27.8854 20.2305 27.9542 19.6927C28.0229 19.1548 28.3356 18.3918 28.3356 18.3292C28.3293 18.2729 28.2668 17.9978 27.6227 17.9915C26.9786 17.9852 26.4219 18.1166 26.3594 18.2854C26.2968 18.4543 26.1717 18.8421 26.0904 19.2423C25.9778 19.8302 24.8021 21.9128 24.1329 23.0073C23.914 22.582 23.7264 22.2068 23.6888 21.9065C23.6326 21.4563 23.5637 21.181 23.6326 20.6432C23.7014 20.1053 24.0141 19.3424 24.0141 19.2798C24.0078 19.2236 23.9453 18.9484 23.3012 18.9421C22.6569 18.9359 22.1004 19.0672 22.0378 19.2361C21.9753 19.4049 21.9065 19.8052 21.7689 20.1929C21.6375 20.5807 20.074 24.058 19.6675 24.9648C19.4611 25.4276 19.2798 25.7966 19.1484 26.0468C19.017 26.2969 19.1421 26.0655 19.1296 26.0905C19.017 26.3032 18.9545 26.422 18.9545 26.422V26.4283C18.867 26.5847 18.7731 26.7347 18.7293 26.7347C18.698 26.7347 18.6355 26.3157 18.7418 25.7404C18.9732 24.5333 19.5361 22.6509 19.5299 22.5821C19.5299 22.5508 19.6361 22.2193 19.1671 22.0505C18.7105 21.8816 18.548 22.163 18.5104 22.163C18.4729 22.163 18.4416 22.2631 18.4416 22.2631C18.4416 22.2631 18.9482 20.143 17.4722 20.143C16.5466 20.143 15.2708 21.1499 14.6391 22.0693C14.2389 22.2882 13.3883 22.7509 12.4877 23.2451C12.1437 23.4327 11.7873 23.6328 11.4495 23.8142L11.3808 23.739C9.59214 21.8315 6.28372 20.4806 6.42131 17.9164C6.47134 16.9846 6.79656 14.5267 12.7755 11.5498C17.6725 9.11069 21.5938 9.77988 22.2754 11.2683C23.2448 13.3947 20.1803 17.3473 15.0895 17.9164C13.1508 18.1353 12.1313 17.3848 11.8749 17.1034C11.606 16.8095 11.5685 16.797 11.4684 16.8533C11.3058 16.9408 11.4059 17.2035 11.4684 17.3598C11.6185 17.7538 12.2439 18.4543 13.3071 18.8045C14.2389 19.111 16.5155 19.2798 19.2673 18.2166C22.3505 17.0221 24.7584 13.7074 24.0517 10.9369C23.3324 8.11629 18.6544 7.19068 14.2327 8.76046C11.5997 9.69857 8.74783 11.162 6.69649 13.082C4.2574 15.3585 3.86964 17.3473 4.03225 18.1729C4.60143 21.1185 8.66028 23.0385 10.2863 24.4582C10.205 24.5019 10.13 24.5457 10.0612 24.5833C9.24816 24.9835 6.15239 26.6034 5.37688 28.3169C4.50131 30.2557 5.51447 31.6504 6.18991 31.8381C8.27878 32.4197 10.4177 31.3752 11.5747 29.6554C12.7254 27.9355 12.5878 25.7028 12.0562 24.6834L12.0374 24.6458L12.6753 24.2706C13.0882 24.0267 13.4947 23.8015 13.8511 23.6076C13.651 24.1517 13.5071 24.7959 13.4321 25.734C13.3446 26.8348 13.7949 28.2607 14.389 28.8235C14.6517 29.0674 14.9644 29.0737 15.1583 29.0737C15.8462 29.0737 16.1589 28.5045 16.5029 27.8229C16.9282 26.9911 17.3034 26.0279 17.3034 26.0279C17.3034 26.0279 16.8344 28.6359 18.1165 28.6359C18.5855 28.6359 19.0546 28.0292 19.2672 27.7165V27.7228C19.2672 27.7228 19.2797 27.704 19.3047 27.6603C19.331 27.6215 19.356 27.5819 19.3798 27.5415V27.529C19.5674 27.2038 19.9864 26.4595 20.6118 25.2275C21.4186 23.6389 22.1941 21.6501 22.1941 21.6501C22.1941 21.6501 22.2692 22.138 22.5006 22.9385C22.6381 23.4139 22.9383 23.9329 23.1697 24.4395C22.9821 24.7021 22.8695 24.8523 22.8695 24.8523L22.8758 24.8586C22.7257 25.0587 22.5568 25.2714 22.3817 25.484C21.7438 26.247 20.9808 27.1163 20.8808 27.3665C20.7619 27.6604 20.787 27.8793 21.0184 28.0545C21.1872 28.1795 21.4874 28.2045 21.8064 28.1795C22.3818 28.1419 22.782 27.9982 22.9821 27.9105C23.2948 27.798 23.6513 27.6291 23.9953 27.379C24.6207 26.9162 25.0022 26.2595 24.9647 25.384C24.9459 24.9024 24.7896 24.4271 24.5957 23.9768C24.652 23.8955 24.7083 23.8141 24.7646 23.7266C25.7527 22.2819 26.5157 20.6934 26.5157 20.6934C26.5157 20.6934 26.5907 21.1812 26.8222 21.9817C26.9409 22.3882 27.1786 22.8323 27.3913 23.2701C26.4657 24.0269 25.884 24.9025 25.6839 25.4778C25.3149 26.541 25.6026 27.0226 26.1467 27.1352C26.3906 27.1852 26.7409 27.0726 27.0035 26.9601C27.3287 26.8537 27.7227 26.6723 28.0855 26.4034C28.7109 25.9406 29.3113 25.2965 29.28 24.4271C29.2612 24.0269 29.1549 23.6329 29.0111 23.2576C29.7991 22.9324 30.8185 22.7448 32.1131 22.9011C34.8962 23.2264 35.4465 24.965 35.3403 25.6905C35.234 26.416 34.6523 26.8162 34.4584 26.9413C34.2645 27.0601 34.202 27.104 34.2207 27.1915C34.2458 27.3228 34.3333 27.3165 34.5022 27.2916C34.7336 27.254 35.9656 26.6974 36.0157 25.3591C36.0907 23.639 34.4584 21.7628 31.5628 21.7815ZM10.0987 29.0175C9.17937 30.0244 7.88477 30.4059 7.33441 30.0807C6.74027 29.7367 6.97161 28.2545 8.10366 27.185C8.79161 26.5346 9.68595 25.9342 10.2738 25.5652C10.4052 25.4839 10.6053 25.3651 10.843 25.2212C10.8805 25.1963 10.9055 25.1837 10.9055 25.1837C10.9493 25.1587 10.9993 25.1274 11.0493 25.0961C11.4684 26.6221 11.0681 27.9605 10.0987 29.0175ZM16.8219 24.4457C16.5029 25.2275 15.8275 27.235 15.4209 27.1225C15.0707 27.0287 14.8581 25.5089 15.3521 24.0079C15.6023 23.2511 16.1339 22.3506 16.4466 22.0003C16.9532 21.4374 17.5035 21.2498 17.6411 21.4812C17.8038 21.7815 17.022 23.9579 16.8219 24.4457ZM22.3692 27.0975C22.2317 27.1663 22.1066 27.2163 22.0503 27.1788C22.0065 27.1538 22.1065 27.06 22.1065 27.06C22.1065 27.06 22.8007 26.3158 23.0759 25.9718C23.2322 25.7717 23.4199 25.5403 23.62 25.2776V25.3526C23.6201 26.2531 22.757 26.8535 22.3692 27.0975ZM26.647 26.1218C26.5469 26.0468 26.5595 25.8154 26.8971 25.0899C27.0285 24.8022 27.3287 24.3206 27.8478 23.8641C27.9103 24.0517 27.9479 24.233 27.9416 24.4019C27.9354 25.5277 27.1349 25.9467 26.647 26.1218Z" stroke="black" stroke-width="2" mask="url(#path-1-outside-1_28_248)"/>
</g>
<defs>
<filter id="filter0_d_28_248" x="2.99939" y="6.99997" width="36.0189" height="28.0014" filterUnits="userSpaceOnUse" color-interpolation-filters="sRGB">
<feFlood flood-opacity="0" result="BackgroundImageFix"/>
<feColorMatrix in="SourceAlpha" type="matrix" values="0 0 0 0 0 0 0 0 0 0 0 0 0 0 0 0 0 0 127 0" result="hardAlpha"/>
<feOffset dx="1" dy="1"/>
<feGaussianBlur stdDeviation="0.5"/>
<feComposite in2="hardAlpha" operator="out"/>
<feColorMatrix type="matrix" values="0 0 0 0 0 0 0 0 0 0 0 0 0 0 0 0 0 0 0.25 0"/>
<feBlend mode="normal" in2="BackgroundImageFix" result="effect1_dropShadow_28_248"/>
<feBlend mode="normal" in="SourceGraphic" in2="effect1_dropShadow_28_248" result="shape"/>
</filter>
</defs>
</svg>
