<svg width="40" height="40" viewBox="0 0 40 40" fill="none" xmlns="http://www.w3.org/2000/svg">
<g clip-path="url(#clip0_28_408)">
<g filter="url(#filter0_d_28_408)">
<path d="M15.4552 2.56826C20.1178 1.37251 25.271 2.0693 29.3831 4.60717C34.562 7.70427 37.943 13.5628 38.029 19.5934C38.2183 25.6841 35.0438 31.7234 29.9423 35.0355C24.2644 38.8551 16.41 39.0015 10.6116 35.3711C4.70152 31.8438 1.25169 24.7293 2.13792 17.8985C2.85176 10.6807 8.42662 4.3147 15.4552 2.5684V2.56826Z" fill="#010101"/>
<path d="M14.741 5.51912C23.5504 1.99184 34.3557 8.50423 35.2675 17.9503C36.687 26.4499 29.6326 35.0871 21.0211 35.3367C12.8312 36.154 4.91655 29.2113 4.68434 20.9871C4.07353 14.3285 8.46102 7.72146 14.741 5.51912Z" fill="white"/>
<path d="M15.6271 19.0859C19.5759 15.8598 23.4386 12.5218 27.4734 9.39031C25.357 12.6423 23.1805 15.8511 21.0641 19.103C19.2489 19.1116 17.4338 19.1116 15.6271 19.0858V19.0859ZM18.9651 20.8838C20.7889 20.8838 22.6041 20.8838 24.4193 20.9097C20.4448 24.1185 16.5993 27.4822 12.5559 30.6051C14.6723 27.3531 16.8488 24.1358 18.9651 20.8838Z" fill="#010101"/>
</g>
</g>
<defs>
<filter id="filter0_d_28_408" x="2" y="2" width="38.037" height="38" filterUnits="userSpaceOnUse" color-interpolation-filters="sRGB">
<feFlood flood-opacity="0" result="BackgroundImageFix"/>
<feColorMatrix in="SourceAlpha" type="matrix" values="0 0 0 0 0 0 0 0 0 0 0 0 0 0 0 0 0 0 127 0" result="hardAlpha"/>
<feOffset dx="1" dy="1"/>
<feGaussianBlur stdDeviation="0.5"/>
<feComposite in2="hardAlpha" operator="out"/>
<feColorMatrix type="matrix" values="0 0 0 0 0 0 0 0 0 0 0 0 0 0 0 0 0 0 0.25 0"/>
<feBlend mode="normal" in2="BackgroundImageFix" result="effect1_dropShadow_28_408"/>
<feBlend mode="normal" in="SourceGraphic" in2="effect1_dropShadow_28_408" result="shape"/>
</filter>
<clipPath id="clip0_28_408">
<rect width="40" height="40" fill="white"/>
</clipPath>
</defs>
</svg>
