<svg width="40" height="40" viewBox="0 0 40 40" fill="none" xmlns="http://www.w3.org/2000/svg">
<g clip-path="url(#clip0_28_487)">
<g filter="url(#filter0_d_28_487)">
<path d="M7.11715 35.174L6.00115 5.45606C5.98431 4.98406 6.15255 4.52416 6.46998 4.17445C6.78742 3.82473 7.22893 3.61288 7.70035 3.58407L32.9723 2.00367C33.2192 1.98792 33.4667 2.02298 33.6996 2.10669C33.9324 2.19041 34.1456 2.321 34.3259 2.49038C34.5063 2.65977 34.65 2.86435 34.7481 3.09147C34.8462 3.3186 34.8967 3.56345 34.8965 3.81087V36.191C34.8962 36.4355 34.8465 36.6773 34.7503 36.9021C34.654 37.1268 34.5133 37.3297 34.3365 37.4986C34.1597 37.6674 33.9506 37.7988 33.7217 37.8846C33.4928 37.9705 33.2489 38.0091 33.0047 37.9982L8.84515 36.9128C8.39128 36.8923 7.96168 36.702 7.64159 36.3796C7.3215 36.0572 7.1343 35.6262 7.11715 35.1722V35.174Z" fill="#FF4785" stroke="black" stroke-width="0.5"/>
<path fill-rule="evenodd" clip-rule="evenodd" d="M28.2777 15.7898C27.6423 16.2848 22.8975 16.6214 22.8975 15.9176C22.9983 13.2302 21.7959 13.1132 21.1263 13.1132C20.4927 13.1132 19.4235 13.304 19.4235 14.744C19.4235 16.211 20.9859 17.039 22.8201 18.011C25.4247 19.3916 28.5801 21.0638 28.5801 25.2686C28.5801 29.3006 25.3041 31.5254 21.1281 31.5254C16.8171 31.5254 13.0497 29.7812 13.4745 23.735C13.6419 23.0258 19.1229 23.195 19.1229 23.735C19.0545 26.2298 19.6233 26.9642 21.0597 26.9642C22.1631 26.9642 22.6635 26.3558 22.6635 25.3334C22.6635 23.7836 21.0363 22.8692 19.1625 21.818C16.6263 20.3942 13.6419 18.7184 13.6419 14.8718C13.6419 11.0342 16.2807 8.47463 20.9931 8.47463C25.7055 8.47463 28.2777 10.9946 28.2777 15.7898Z" fill="white" stroke="black" stroke-width="0.5"/>
<path d="M27.507 2.34385L30.9846 2.12785H30.9864L31.1304 6.28224C31.1323 6.33377 31.1193 6.38475 31.0931 6.42916C31.0669 6.47357 31.0285 6.50954 30.9825 6.53283C30.9365 6.55612 30.8848 6.56574 30.8335 6.56057C30.7822 6.5554 30.7334 6.53564 30.693 6.50364L29.3538 5.44884L27.7698 6.65124C27.729 6.68194 27.6802 6.70042 27.6293 6.70453C27.5784 6.70864 27.5273 6.69821 27.4821 6.67446C27.4368 6.65071 27.3993 6.6146 27.3737 6.57035C27.3482 6.52609 27.3357 6.47549 27.3378 6.42444L27.507 2.34385Z" fill="white" stroke="black" stroke-width="0.5"/>
<path d="M31.4138 2.10562L26.9232 2.38642" stroke="black" stroke-width="0.5"/>
</g>
</g>
<defs>
<filter id="filter0_d_28_487" x="5.75" y="1.75" width="31.3965" height="38.5" filterUnits="userSpaceOnUse" color-interpolation-filters="sRGB">
<feFlood flood-opacity="0" result="BackgroundImageFix"/>
<feColorMatrix in="SourceAlpha" type="matrix" values="0 0 0 0 0 0 0 0 0 0 0 0 0 0 0 0 0 0 127 0" result="hardAlpha"/>
<feOffset dx="1" dy="1"/>
<feGaussianBlur stdDeviation="0.5"/>
<feComposite in2="hardAlpha" operator="out"/>
<feColorMatrix type="matrix" values="0 0 0 0 0 0 0 0 0 0 0 0 0 0 0 0 0 0 0.25 0"/>
<feBlend mode="normal" in2="BackgroundImageFix" result="effect1_dropShadow_28_487"/>
<feBlend mode="normal" in="SourceGraphic" in2="effect1_dropShadow_28_487" result="shape"/>
</filter>
<clipPath id="clip0_28_487">
<rect width="40" height="40" fill="white"/>
</clipPath>
</defs>
</svg>
