<svg width="40" height="40" viewBox="0 0 40 40" fill="none" xmlns="http://www.w3.org/2000/svg">
<g clip-path="url(#clip0_28_275)">
<g filter="url(#filter0_d_28_275)">
<path d="M9.7044 20.1546C16.1649 14.8797 18.323 13.3505 19.3264 13.3574H19.3298C19.4357 13.3568 19.5407 13.3767 19.6391 13.4158C20.8384 13.8522 20.1477 15.1993 17.2027 18.1821C15.5291 19.8179 13.8556 21.3436 13.457 21.5636C13.2614 21.6563 13.0915 21.7956 12.9621 21.9691L12.5841 22.055C12.024 22.1649 11.3298 22.2577 10.7422 22.2062C10.4467 22.1821 10.1786 22.1203 9.97244 22.0172C9.76282 21.9141 9.61161 21.7732 9.52914 21.5704C9.40199 21.2749 9.42605 20.8179 9.7044 20.1546Z" fill="#DB7093" stroke="black" stroke-width="0.5"/>
<path d="M21.6736 18.6529C21.6736 18.6529 25.9897 15.4536 26.8729 15.4295C27.2715 15.4158 27.5258 15.6117 27.6736 16C28 16.8007 23.2749 21.9622 23.2749 21.9622C23.2749 21.9622 21.4949 23.7594 21.1512 24.2027L20.9691 24.299L20.8694 24.3402C20.5409 24.4602 20.2072 24.5657 19.8694 24.6564C19.2212 24.843 18.5508 24.9413 17.8763 24.9484C17.594 24.95 17.3141 24.8975 17.0516 24.7938C16.946 24.7522 16.8498 24.69 16.7684 24.611C16.687 24.532 16.6221 24.4376 16.5773 24.3333C16.3986 23.9106 16.4983 23.1443 17.1753 21.9072L18.976 20.4845C19.4399 20.3608 21.6736 18.6529 21.6736 18.6529Z" fill="#DB7093" stroke="black" stroke-width="0.5"/>
<path d="M16.6907 20.5086C17.7182 19.6083 18.2886 19.1684 18.5429 19.1409V19.1443C18.7422 19.1237 18.7491 19.3574 18.622 19.8179C18.5823 19.9552 18.5638 20.0977 18.567 20.2406L16.4965 21.8716L14.4261 23.5026L10.2852 26.7646L2.00342 33.2887V26.5086L4.53091 24.4175L7.0584 22.3265L8.17524 21.4089L9.29208 20.4914C9.14775 20.9828 9.14775 21.3677 9.2749 21.677C9.3895 21.9357 9.59487 22.1435 9.85222 22.2612C10.1251 22.3861 10.4187 22.4595 10.7182 22.4777C11.3539 22.5292 12.0653 22.4364 12.6357 22.323C12.7667 22.2975 12.8973 22.27 13.0275 22.2406C13.5876 22.5773 15.2062 21.8213 16.6907 20.5086Z" fill="#F8D251" stroke="black" stroke-width="0.5"/>
<path d="M24.3299 22.4021C25 21.6907 25.4192 21.3368 25.6701 21.3368V21.3333C25.921 21.3333 26 21.6907 26 22.3986C26 23.3093 25.5636 23.9244 23.6392 25.7079C22.921 26.378 22.3883 26.9141 22.0344 27.3058L8.41924 38H2V33.8591L16.6117 22.3505C16.1753 23.3024 16.0962 23.9725 16.2955 24.4502C16.4183 24.7304 16.645 24.9521 16.9278 25.0687C17.228 25.1909 17.5488 25.2539 17.8729 25.2543C18.5601 25.2715 19.3299 25.1168 19.9485 24.9485C20.2577 24.866 20.5258 24.7835 20.732 24.7148C20.8592 24.6701 20.9853 24.6219 21.11 24.5704L21.2268 24.5086C21.9863 24.3162 23.4192 23.3746 24.3299 22.4021Z" fill="#F8D251" stroke="black" stroke-width="0.5"/>
<path d="M27.7457 29.1993L28.9107 28.0378V29.4914C28.9107 31.2027 27.8179 33.2027 25.4193 36L23.6736 38H16.3677H9.06189L20.0481 29.3196C19.9051 29.5917 19.7955 29.8802 19.7217 30.1787C19.6289 30.5979 19.677 30.9381 19.842 31.1924C20.0218 31.4444 20.2888 31.6207 20.5911 31.6873C20.9395 31.7717 21.2986 31.803 21.6564 31.7801C22.413 31.7293 23.1619 31.5968 23.8901 31.3849C24.2175 31.2924 24.5409 31.1858 24.8591 31.0653C24.8832 31.055 24.8969 31.0515 24.9279 31.0275L24.9622 30.9931L24.9725 30.9759L25.1306 30.9072C25.9279 30.5808 27.0928 29.8179 27.7457 29.1993Z" fill="#F8D251" stroke="black" stroke-width="0.5"/>
<path d="M31.3093 3.34364L31.567 2H34.6564H37.756V8.62543C37.756 8.62543 36.4055 8.54296 35.9278 8.54296C34.9107 8.54296 34.9107 8.61856 33.5292 13.9278C31.7835 20.6529 30.9485 22.7973 29.4914 24.2165C28.8007 24.945 28.6186 25.3093 29.0206 25.165C29.6087 24.9479 29.5718 25.2827 28.9787 26.0655C28.6559 26.4915 28.1684 27.0502 27.5271 27.7249C27.1641 28.1069 26.7517 28.5261 26.2921 28.9794C25.9458 29.3211 25.6497 29.6146 25.3993 29.8655C24.8969 30.3692 24.5787 30.7019 24.4089 30.9107C24.244 30.9656 24.055 31.0275 23.8144 31.0928C23.4781 31.1904 23.1372 31.2708 22.7931 31.3337C22.4129 31.4032 22.0288 31.4513 21.6426 31.4777C21.3175 31.4996 20.9908 31.473 20.6735 31.3986C20.4055 31.323 20.2096 31.2028 20.0962 31.0309C19.9794 30.8522 19.9347 30.6082 20.0137 30.2405C20.0928 29.8832 20.299 29.4124 20.6632 28.8282L21.2302 28.3797L21.7973 27.9313C22.1443 27.7113 22.7835 27.1993 23.7113 26.3643C24.8729 25.3436 26.512 24.0722 27.3471 23.5979C27.7332 23.3607 28.0648 23.1107 28.3344 22.8536C28.7247 22.4814 28.9851 22.0941 29.0928 21.7079C29.154 21.4036 29.3389 20.9534 29.566 20.4948C29.7468 20.1299 29.9544 19.7597 30.1478 19.4536C30.6564 18.6529 31.457 16.2165 32.11 13.3093L33.2027 8.43643L32.1478 7.56357C31.055 6.61856 30.9107 5.89003 31.3093 3.34364Z" fill="#DB7093" stroke="black" stroke-width="0.5"/>
</g>
</g>
<defs>
<filter id="filter0_d_28_275" x="1.75" y="1.75" width="38.256" height="38.5" filterUnits="userSpaceOnUse" color-interpolation-filters="sRGB">
<feFlood flood-opacity="0" result="BackgroundImageFix"/>
<feColorMatrix in="SourceAlpha" type="matrix" values="0 0 0 0 0 0 0 0 0 0 0 0 0 0 0 0 0 0 127 0" result="hardAlpha"/>
<feOffset dx="1" dy="1"/>
<feGaussianBlur stdDeviation="0.5"/>
<feComposite in2="hardAlpha" operator="out"/>
<feColorMatrix type="matrix" values="0 0 0 0 0 0 0 0 0 0 0 0 0 0 0 0 0 0 0.25 0"/>
<feBlend mode="normal" in2="BackgroundImageFix" result="effect1_dropShadow_28_275"/>
<feBlend mode="normal" in="SourceGraphic" in2="effect1_dropShadow_28_275" result="shape"/>
</filter>
<clipPath id="clip0_28_275">
<rect width="40" height="40" fill="white"/>
</clipPath>
</defs>
</svg>
