<svg width="40" height="40" viewBox="0 0 40 40" fill="none" xmlns="http://www.w3.org/2000/svg">
<g filter="url(#filter0_d_28_301)">
<path d="M19.67 10C15.2245 10 12.4463 12.2223 11.3348 16.6664C13.002 14.4441 14.9469 13.6111 17.1694 14.1664C18.4376 14.4833 19.344 15.4035 20.3475 16.4216C21.9817 18.0802 23.8733 19.9998 28.0052 19.9998C32.4503 19.9998 35.2289 17.7775 36.34 13.333C34.6732 15.5553 32.7283 16.3887 30.5054 15.8334C29.2376 15.5165 28.3312 14.5963 27.3277 13.5781C25.6935 11.9196 23.8015 10 19.67 10ZM11.3348 19.9998C6.88974 19.9998 4.11106 22.2221 3 26.6666C4.66679 24.4443 6.61166 23.6109 8.83461 24.1666C10.1024 24.4839 11.0088 25.4037 12.0123 26.4214C13.6465 28.08 15.5385 30 19.67 30C24.1155 30 26.8937 27.7777 28.0052 23.3332C26.338 25.5555 24.3931 26.3889 22.1706 25.8331C20.9024 25.5167 19.996 24.5961 18.9925 23.5784C17.3583 21.9198 15.4668 19.9998 11.3348 19.9998Z" fill="#06B6D4" stroke="black" stroke-width="0.5"/>
</g>
<defs>
<filter id="filter0_d_28_301" x="2.75745" y="9.75" width="35.8251" height="22.5" filterUnits="userSpaceOnUse" color-interpolation-filters="sRGB">
<feFlood flood-opacity="0" result="BackgroundImageFix"/>
<feColorMatrix in="SourceAlpha" type="matrix" values="0 0 0 0 0 0 0 0 0 0 0 0 0 0 0 0 0 0 127 0" result="hardAlpha"/>
<feOffset dx="1" dy="1"/>
<feGaussianBlur stdDeviation="0.5"/>
<feComposite in2="hardAlpha" operator="out"/>
<feColorMatrix type="matrix" values="0 0 0 0 0 0 0 0 0 0 0 0 0 0 0 0 0 0 0.25 0"/>
<feBlend mode="normal" in2="BackgroundImageFix" result="effect1_dropShadow_28_301"/>
<feBlend mode="normal" in="SourceGraphic" in2="effect1_dropShadow_28_301" result="shape"/>
</filter>
</defs>
</svg>
