<svg width="40" height="40" viewBox="0 0 40 40" fill="none" xmlns="http://www.w3.org/2000/svg">
<g clip-path="url(#clip0_28_330)">
<g filter="url(#filter0_d_28_330)">
<path d="M37.1485 16.634C37.1905 16.709 37.228 16.8035 37.2655 16.913C37.2235 16.823 37.195 16.7195 37.1485 16.634C38.0365 20.09 34.2235 24.1385 29.4535 22.9925H29.455C36.349 18.4775 32.953 12.8345 29.74 10.1225C27.097 7.8875 28.6585 7.1975 29.7715 7.1975C30.127 7.1975 30.436 7.2665 30.55 7.379L30.5425 7.373L30.5515 7.379C30.5245 5.2295 22.9525 5.714 29.5765 12.62C32.9785 16.1675 28.9645 24.014 24.1825 18.047C24.1432 17.993 24.1076 17.9364 24.076 17.8775C24.8485 17.5565 25.4815 16.685 25.4815 15.248C25.4893 14.7396 25.3886 14.2354 25.186 13.769C25.738 12.644 26.2465 11.2985 26.2465 9.614C26.2465 5.588 23.6335 2 19.9765 2C16.3195 2 13.7065 5.588 13.7065 9.614C13.7065 11.2985 14.215 12.644 14.767 13.7705C14.5636 14.2377 14.4628 14.743 14.4715 15.2525C14.4715 16.6895 15.103 17.5625 15.877 17.882C15.8449 17.9409 15.8088 17.9975 15.769 18.0515C10.987 24.0185 6.97299 16.1705 10.375 12.6245C17.0005 5.7185 9.42549 5.2355 9.39849 7.3835L9.41049 7.3775C9.52749 7.2665 9.83049 7.1975 10.183 7.1975C11.296 7.1975 12.8575 7.8875 10.2145 10.1225C7.01499 12.8225 3.63999 18.4295 10.423 22.9355C10.45 22.955 10.468 22.976 10.4965 22.9955C5.73249 24.1415 1.92549 20.1035 2.79999 16.6475L2.80599 16.6325C2.80449 16.6355 2.80299 16.64 2.79999 16.6415L2.80149 16.637L2.79699 16.6475C1.03599 19.0625 1.88799 25.316 8.46399 25.8995C8.49249 25.904 8.51649 25.913 8.54499 25.9175C2.00499 27.4175 3.97299 36.4475 8.57649 35.0015L8.55999 35L8.58399 34.9955C5.38299 34.478 5.14299 30.5 6.74199 29.1305C8.49999 27.6215 10.5205 28.925 14.695 27.7325L14.74 27.7265C14.695 31.3955 18.268 33.3665 16.3945 35.4665C14.4205 37.676 11.7265 35.3165 12.1075 33.1415L12.1165 33.098L12.1105 33.11V33.104L12.1045 33.122C10.453 35.897 12.544 38 14.893 38C16.2415 38 17.6755 37.307 18.5365 35.6495C20.3575 32.144 14.959 26.0015 19.9765 26.0015C24.9925 26.0015 19.594 32.144 21.415 35.6495C22.276 37.307 23.71 38 25.06 38C27.4165 38 29.515 35.8835 27.835 33.098L27.8425 33.1295L27.8335 33.104C28.2475 35.2895 25.534 37.6895 23.551 35.4665C21.685 33.3605 25.2475 31.3895 25.21 27.722C29.419 28.94 31.4455 27.614 33.211 29.132C34.81 30.4985 34.57 34.478 31.369 34.997H31.3795C35.9845 36.434 37.945 27.416 31.4065 25.9115L31.414 25.91C38.074 25.367 38.9275 19.0505 37.147 16.634H37.1485ZM6.79149 17.219C6.58599 13.85 9.50649 11.1095 10.408 10.3475C11.665 9.287 12.1555 8.4395 11.905 7.757C11.8259 7.55186 11.6926 7.37205 11.5193 7.23678C11.346 7.10151 11.1392 7.01587 10.921 6.989C10.6344 6.94497 10.3419 6.96029 10.0615 7.034C10.315 6.911 10.609 6.839 10.9225 6.839C11.635 6.839 12.2215 7.1735 12.415 7.6925C12.5905 8.162 12.595 9.203 10.654 10.892C7.58349 13.5665 7.33449 16.775 8.12649 18.887C8.81349 20.7215 10.3315 21.908 11.9965 21.908C12.262 21.908 12.529 21.878 12.796 21.8225C11.986 22.5125 11.056 22.7375 10.678 22.8065C8.43699 21.239 6.90999 19.178 6.79149 17.216V17.219ZM14.6035 27.5285C12.901 27.9815 11.161 28.007 10.0465 28.013C8.66049 28.022 7.56399 28.028 6.54699 28.9025C5.62149 29.6945 5.23749 31.2935 5.63349 32.7065C5.76999 33.194 5.91849 33.6905 6.27249 33.992C6.53949 34.2215 6.99549 34.547 7.45299 34.775L7.42899 34.769C7.45749 34.784 7.47849 34.8035 7.50699 34.8185C6.01749 34.5005 5.14899 33.0485 5.04399 31.6175C4.91199 29.81 5.94699 27.5255 9.29199 27.035C9.82299 26.957 10.384 26.9105 10.9435 26.864C12.3085 26.75 13.7185 26.6315 14.689 26.054C14.653 26.624 14.62 27.236 14.6035 27.5285ZM14.9785 23.5025C14.0035 24.9995 12.0745 25.232 10.3735 25.4375C9.89349 25.4945 9.45399 25.562 9.04899 25.6445L8.51499 25.6085C5.81349 25.3745 3.80349 24.0995 2.85249 22.0145C2.41119 21.0505 2.22869 19.9881 2.32299 18.932C2.32299 18.932 2.37999 18.368 2.48499 17.777C2.35449 19.4195 2.79549 20.984 3.80499 22.2725C4.45664 23.095 5.28552 23.7599 6.22986 24.2175C7.17419 24.6751 8.20962 24.9137 9.25899 24.9155C11.254 24.9155 13.141 24.0305 14.5765 22.421C15.0715 21.866 15.2935 21.824 15.3505 21.824C15.5425 22.103 15.379 22.886 14.98 23.5025H14.9785ZM24.5365 15.248C24.5365 17.2685 22.246 17.2685 22.246 15.248C22.246 13.2275 24.5365 13.2275 24.5365 15.248ZM21.829 7.01C21.829 8.1215 19.9765 8.1215 19.9765 7.01C19.9765 5.9 21.829 5.9 21.829 7.01ZM21.442 19.244C21.442 20.3675 21.352 21.278 21.2425 21.278C21.133 21.278 21.0535 20.3705 21.055 19.2455C21.055 18.1205 21.148 17.2115 21.2545 17.2115C21.3595 17.2115 21.4465 18.1205 21.442 19.244ZM20.014 16.823C20.098 16.823 20.164 17.918 20.164 19.2695C20.164 20.621 20.098 21.716 20.014 21.716C19.93 21.716 19.864 20.621 19.864 19.271C19.864 17.918 19.9315 16.823 20.014 16.823ZM19.7245 4.508C19.7245 5.2745 18.451 5.2745 18.451 4.508C18.451 3.7415 19.726 3.749 19.726 4.508H19.7245ZM18.844 10.838C18.844 10.307 19.7245 10.3115 19.7245 10.838C19.7245 11.369 18.844 11.369 18.844 10.838ZM18.913 19.271C18.913 20.423 18.817 21.356 18.7075 21.356C18.598 21.356 18.5095 20.423 18.511 19.2725C18.5125 18.122 18.607 17.189 18.718 17.189C18.829 17.189 18.916 18.119 18.913 19.271ZM18.913 8.0285C18.913 8.7935 17.6395 8.7935 17.6395 8.0285C17.6395 7.2635 18.913 7.2635 18.913 8.0285ZM17.1925 6.1775C17.1925 6.707 16.312 6.707 16.312 6.1775C16.312 5.648 17.1925 5.648 17.1925 6.1775ZM17.0725 9.9395C17.0725 10.322 16.435 10.322 16.435 9.9395C16.435 9.5555 17.071 9.5555 17.071 9.9395H17.0725ZM15.4225 15.2495C15.4225 13.229 17.7145 13.229 17.7145 15.2495C17.7145 17.27 15.4225 17.27 15.4225 15.2495ZM23.413 28.8815C23.296 29.9915 23.0035 30.9515 22.744 31.8005C22.2235 33.5075 21.811 34.8545 23.107 36.3035C23.6515 36.914 24.3505 37.2365 25.126 37.2365C26.086 37.2365 27.043 36.7265 27.622 35.903C27.8805 35.5245 28.0474 35.0911 28.1095 34.637C28.135 34.877 28.1485 35.102 28.132 35.2625C28.1025 35.6026 28.0019 35.9328 27.8365 36.2315C27.3325 37.124 26.242 37.7015 25.0615 37.7015C23.6365 37.7015 22.4065 36.9035 21.682 35.513C20.9605 34.1225 21.484 32.192 21.9475 30.488C22.4005 28.8155 22.7935 27.3725 22.1035 26.471C21.709 25.9535 21.013 25.703 19.978 25.703C18.9415 25.703 18.2455 25.9535 17.851 26.471C17.161 27.371 17.554 28.8155 18.007 30.488C18.4705 32.192 18.994 34.1225 18.2725 35.513C17.5495 36.9035 16.318 37.7015 14.8945 37.7015C13.7125 37.7015 12.622 37.124 12.118 36.2315C11.8496 35.7488 11.7533 35.1892 11.845 34.6445C11.917 35.0885 12.058 35.5175 12.3295 35.9045C12.91 36.725 13.867 37.2365 14.827 37.2365C15.604 37.2365 16.303 36.914 16.849 36.3035C18.142 34.8545 17.731 33.5105 17.209 31.8065C16.9495 30.956 16.6555 29.9915 16.5415 28.8815C16.3915 27.4325 16.72 26.141 17.4415 25.3415C18.04 24.68 18.892 24.3425 19.9765 24.3425C21.061 24.3425 21.916 24.6785 22.5115 25.34C23.2315 26.1395 23.5615 27.4295 23.4115 28.88L23.413 28.8815ZM27.9565 21.911C29.6215 21.911 31.1395 20.726 31.825 18.89C32.614 16.778 32.365 13.5695 29.29 10.895C27.3475 9.2045 27.352 8.165 27.5275 7.694C27.7225 7.1765 28.3075 6.8405 29.0185 6.8405C29.308 6.8405 29.5765 6.908 29.8165 7.013L29.833 7.019C29.5704 6.96119 29.2994 6.95204 29.0335 6.992C28.8153 7.01887 28.6085 7.10451 28.4352 7.23978C28.2619 7.37505 28.1286 7.55486 28.0495 7.76C27.8005 8.4425 28.2895 9.29 29.5465 10.352C30.4465 11.1125 33.3685 13.853 33.163 17.219C33.043 19.181 31.5175 21.242 29.2765 22.8095C28.4977 22.6688 27.7683 22.3299 27.1585 21.8255C27.424 21.8825 27.6925 21.911 27.9565 21.911ZM34.909 31.6145C34.804 33.0485 33.934 34.4975 32.4415 34.8155C32.464 34.8035 32.4835 34.7885 32.5045 34.775C32.962 34.5455 33.4165 34.223 33.682 33.995C34.0345 33.692 34.1845 33.1955 34.321 32.708C34.717 31.295 34.333 29.696 33.4075 28.904C32.3905 28.031 31.294 28.0235 29.908 28.0145C28.7935 28.0085 27.0535 27.983 25.348 27.53C25.333 27.236 25.303 26.627 25.267 26.0555C26.2375 26.6345 27.6505 26.753 29.017 26.8685C29.5765 26.915 30.133 26.9615 30.6625 27.038C34.0075 27.5285 35.041 29.81 34.9075 31.613L34.909 31.6145ZM30.91 25.646C30.5035 25.562 30.0625 25.496 29.581 25.436C27.8785 25.232 25.9495 24.9995 24.976 23.501C24.574 22.886 24.406 22.106 24.538 21.866C24.5611 21.8575 24.5854 21.8529 24.61 21.8525C24.745 21.8525 24.967 21.962 25.3765 22.421C26.812 24.0305 28.702 24.9155 30.6955 24.9155C32.8165 24.9155 34.8565 23.9255 36.151 22.271C37.159 20.984 37.5985 19.421 37.471 17.78C37.576 18.3695 37.6315 18.935 37.6315 18.935C37.7255 19.9906 37.543 21.0524 37.102 22.016C36.151 24.101 34.141 25.376 31.4395 25.61L30.91 25.646ZM16.375 14.4035C16.4304 14.4381 16.4752 14.4874 16.5043 14.546C16.5334 14.6045 16.5458 14.6699 16.54 14.735C16.5445 14.784 16.5388 14.8335 16.5231 14.8801C16.5075 14.9268 16.4822 14.9697 16.4491 15.0061C16.4159 15.0425 16.3755 15.0715 16.3305 15.0914C16.2854 15.1113 16.2367 15.1216 16.1875 15.1216C16.1383 15.1216 16.0896 15.1113 16.0445 15.0914C15.9995 15.0715 15.9591 15.0425 15.9259 15.0061C15.8927 14.9697 15.8675 14.9268 15.8519 14.8801C15.8362 14.8335 15.8305 14.784 15.835 14.735C15.8286 14.6693 15.8408 14.603 15.8703 14.5439C15.8997 14.4848 15.9451 14.4351 16.0014 14.4005C16.0577 14.366 16.1226 14.3479 16.1886 14.3485C16.2547 14.349 16.3193 14.3681 16.375 14.4035ZM22.8175 15.068C22.7617 15.0334 22.7167 14.9838 22.6875 14.925C22.6584 14.8662 22.6463 14.8004 22.6525 14.735C22.6494 14.6869 22.6561 14.6386 22.6724 14.5932C22.6886 14.5478 22.714 14.5062 22.747 14.471C22.78 14.4358 22.8198 14.4078 22.8641 14.3886C22.9083 14.3694 22.956 14.3595 23.0042 14.3595C23.0525 14.3595 23.1002 14.3694 23.1444 14.3886C23.1887 14.4078 23.2285 14.4358 23.2615 14.471C23.2945 14.5062 23.3199 14.5478 23.3361 14.5932C23.3524 14.6386 23.3591 14.6869 23.356 14.735C23.3619 14.8005 23.3494 14.8663 23.3201 14.925C23.2907 14.9838 23.2455 15.0333 23.1896 15.0678C23.1337 15.1024 23.0693 15.1207 23.0036 15.1208C22.9379 15.1208 22.8734 15.1025 22.8175 15.068Z" fill="#E33332"/>
<path d="M37.1485 16.634C37.1905 16.709 37.228 16.8035 37.2655 16.913C37.2235 16.823 37.195 16.7195 37.1485 16.634ZM37.1485 16.634C38.0365 20.09 34.2235 24.1385 29.4535 22.9925H29.455C36.349 18.4775 32.953 12.8345 29.74 10.1225C27.097 7.8875 28.6585 7.1975 29.7715 7.1975C30.127 7.1975 30.436 7.2665 30.55 7.379L30.5425 7.373L30.5515 7.379C30.5245 5.2295 22.9525 5.714 29.5765 12.62C32.9785 16.1675 28.9645 24.014 24.1825 18.047C24.1432 17.993 24.1076 17.9364 24.076 17.8775C24.8485 17.5565 25.4815 16.685 25.4815 15.248C25.4893 14.7396 25.3886 14.2354 25.186 13.769C25.738 12.644 26.2465 11.2985 26.2465 9.614C26.2465 5.588 23.6335 2 19.9765 2C16.3195 2 13.7065 5.588 13.7065 9.614C13.7065 11.2985 14.215 12.644 14.767 13.7705C14.5636 14.2377 14.4628 14.743 14.4715 15.2525C14.4715 16.6895 15.103 17.5625 15.877 17.882C15.8449 17.9409 15.8088 17.9975 15.769 18.0515C10.987 24.0185 6.97299 16.1705 10.375 12.6245C17.0005 5.7185 9.42549 5.2355 9.39849 7.3835L9.41049 7.3775C9.52749 7.2665 9.83049 7.1975 10.183 7.1975C11.296 7.1975 12.8575 7.8875 10.2145 10.1225C7.01499 12.8225 3.63999 18.4295 10.423 22.9355C10.45 22.955 10.468 22.976 10.4965 22.9955C5.73249 24.1415 1.92549 20.1035 2.79999 16.6475L2.80599 16.6325C2.80449 16.6355 2.80299 16.64 2.79999 16.6415L2.80149 16.637L2.79699 16.6475C1.03599 19.0625 1.88799 25.316 8.46399 25.8995C8.49249 25.904 8.51649 25.913 8.54499 25.9175C2.00499 27.4175 3.97299 36.4475 8.57649 35.0015L8.55999 35L8.58399 34.9955C5.38299 34.478 5.14299 30.5 6.74199 29.1305C8.49999 27.6215 10.5205 28.925 14.695 27.7325L14.74 27.7265C14.695 31.3955 18.268 33.3665 16.3945 35.4665C14.4205 37.676 11.7265 35.3165 12.1075 33.1415L12.1165 33.098L12.1105 33.11V33.104L12.1045 33.122C10.453 35.897 12.544 38 14.893 38C16.2415 38 17.6755 37.307 18.5365 35.6495C20.3575 32.144 14.959 26.0015 19.9765 26.0015C24.9925 26.0015 19.594 32.144 21.415 35.6495C22.276 37.307 23.71 38 25.06 38C27.4165 38 29.515 35.8835 27.835 33.098L27.8425 33.1295L27.8335 33.104C28.2475 35.2895 25.534 37.6895 23.551 35.4665C21.685 33.3605 25.2475 31.3895 25.21 27.722C29.419 28.94 31.4455 27.614 33.211 29.132C34.81 30.4985 34.57 34.478 31.369 34.997H31.3795C35.9845 36.434 37.945 27.416 31.4065 25.9115L31.414 25.91C38.074 25.367 38.9275 19.0505 37.147 16.634H37.1485ZM6.79149 17.219C6.58599 13.85 9.50649 11.1095 10.408 10.3475C11.665 9.287 12.1555 8.4395 11.905 7.757C11.8259 7.55186 11.6926 7.37205 11.5193 7.23678C11.346 7.10151 11.1392 7.01587 10.921 6.989C10.6344 6.94497 10.3419 6.96029 10.0615 7.034C10.315 6.911 10.609 6.839 10.9225 6.839C11.635 6.839 12.2215 7.1735 12.415 7.6925C12.5905 8.162 12.595 9.203 10.654 10.892C7.58349 13.5665 7.33449 16.775 8.12649 18.887C8.81349 20.7215 10.3315 21.908 11.9965 21.908C12.262 21.908 12.529 21.878 12.796 21.8225C11.986 22.5125 11.056 22.7375 10.678 22.8065C8.43699 21.239 6.90999 19.178 6.79149 17.216V17.219ZM14.6035 27.5285C12.901 27.9815 11.161 28.007 10.0465 28.013C8.66049 28.022 7.56399 28.028 6.54699 28.9025C5.62149 29.6945 5.23749 31.2935 5.63349 32.7065C5.76999 33.194 5.91849 33.6905 6.27249 33.992C6.53949 34.2215 6.99549 34.547 7.45299 34.775L7.42899 34.769C7.45749 34.784 7.47849 34.8035 7.50699 34.8185C6.01749 34.5005 5.14899 33.0485 5.04399 31.6175C4.91199 29.81 5.94699 27.5255 9.29199 27.035C9.82299 26.957 10.384 26.9105 10.9435 26.864C12.3085 26.75 13.7185 26.6315 14.689 26.054C14.653 26.624 14.62 27.236 14.6035 27.5285ZM14.9785 23.5025C14.0035 24.9995 12.0745 25.232 10.3735 25.4375C9.89349 25.4945 9.45399 25.562 9.04899 25.6445L8.51499 25.6085C5.81349 25.3745 3.80349 24.0995 2.85249 22.0145C2.41119 21.0505 2.22869 19.9881 2.32299 18.932C2.32299 18.932 2.37999 18.368 2.48499 17.777C2.35449 19.4195 2.79549 20.984 3.80499 22.2725C4.45664 23.095 5.28552 23.7599 6.22986 24.2175C7.17419 24.6751 8.20962 24.9137 9.25899 24.9155C11.254 24.9155 13.141 24.0305 14.5765 22.421C15.0715 21.866 15.2935 21.824 15.3505 21.824C15.5425 22.103 15.379 22.886 14.98 23.5025H14.9785ZM24.5365 15.248C24.5365 17.2685 22.246 17.2685 22.246 15.248C22.246 13.2275 24.5365 13.2275 24.5365 15.248ZM21.829 7.01C21.829 8.1215 19.9765 8.1215 19.9765 7.01C19.9765 5.9 21.829 5.9 21.829 7.01ZM21.442 19.244C21.442 20.3675 21.352 21.278 21.2425 21.278C21.133 21.278 21.0535 20.3705 21.055 19.2455C21.055 18.1205 21.148 17.2115 21.2545 17.2115C21.3595 17.2115 21.4465 18.1205 21.442 19.244ZM20.014 16.823C20.098 16.823 20.164 17.918 20.164 19.2695C20.164 20.621 20.098 21.716 20.014 21.716C19.93 21.716 19.864 20.621 19.864 19.271C19.864 17.918 19.9315 16.823 20.014 16.823ZM19.7245 4.508C19.7245 5.2745 18.451 5.2745 18.451 4.508C18.451 3.7415 19.726 3.749 19.726 4.508H19.7245ZM18.844 10.838C18.844 10.307 19.7245 10.3115 19.7245 10.838C19.7245 11.369 18.844 11.369 18.844 10.838ZM18.913 19.271C18.913 20.423 18.817 21.356 18.7075 21.356C18.598 21.356 18.5095 20.423 18.511 19.2725C18.5125 18.122 18.607 17.189 18.718 17.189C18.829 17.189 18.916 18.119 18.913 19.271V19.271ZM18.913 8.0285C18.913 8.7935 17.6395 8.7935 17.6395 8.0285C17.6395 7.2635 18.913 7.2635 18.913 8.0285ZM17.1925 6.1775C17.1925 6.707 16.312 6.707 16.312 6.1775C16.312 5.648 17.1925 5.648 17.1925 6.1775ZM17.0725 9.9395C17.0725 10.322 16.435 10.322 16.435 9.9395C16.435 9.5555 17.071 9.5555 17.071 9.9395H17.0725ZM15.4225 15.2495C15.4225 13.229 17.7145 13.229 17.7145 15.2495C17.7145 17.27 15.4225 17.27 15.4225 15.2495ZM23.413 28.8815C23.296 29.9915 23.0035 30.9515 22.744 31.8005C22.2235 33.5075 21.811 34.8545 23.107 36.3035C23.6515 36.914 24.3505 37.2365 25.126 37.2365C26.086 37.2365 27.043 36.7265 27.622 35.903C27.8805 35.5245 28.0474 35.0911 28.1095 34.637C28.135 34.877 28.1485 35.102 28.132 35.2625C28.1025 35.6026 28.0019 35.9328 27.8365 36.2315C27.3325 37.124 26.242 37.7015 25.0615 37.7015C23.6365 37.7015 22.4065 36.9035 21.682 35.513C20.9605 34.1225 21.484 32.192 21.9475 30.488C22.4005 28.8155 22.7935 27.3725 22.1035 26.471C21.709 25.9535 21.013 25.703 19.978 25.703C18.9415 25.703 18.2455 25.9535 17.851 26.471C17.161 27.371 17.554 28.8155 18.007 30.488C18.4705 32.192 18.994 34.1225 18.2725 35.513C17.5495 36.9035 16.318 37.7015 14.8945 37.7015C13.7125 37.7015 12.622 37.124 12.118 36.2315C11.8496 35.7488 11.7533 35.1892 11.845 34.6445C11.917 35.0885 12.058 35.5175 12.3295 35.9045C12.91 36.725 13.867 37.2365 14.827 37.2365C15.604 37.2365 16.303 36.914 16.849 36.3035C18.142 34.8545 17.731 33.5105 17.209 31.8065C16.9495 30.956 16.6555 29.9915 16.5415 28.8815C16.3915 27.4325 16.72 26.141 17.4415 25.3415C18.04 24.68 18.892 24.3425 19.9765 24.3425C21.061 24.3425 21.916 24.6785 22.5115 25.34C23.2315 26.1395 23.5615 27.4295 23.4115 28.88L23.413 28.8815ZM27.9565 21.911C29.6215 21.911 31.1395 20.726 31.825 18.89C32.614 16.778 32.365 13.5695 29.29 10.895C27.3475 9.2045 27.352 8.165 27.5275 7.694C27.7225 7.1765 28.3075 6.8405 29.0185 6.8405C29.308 6.8405 29.5765 6.908 29.8165 7.013L29.833 7.019C29.5704 6.96119 29.2994 6.95204 29.0335 6.992C28.8153 7.01887 28.6085 7.10451 28.4352 7.23978C28.2619 7.37505 28.1286 7.55486 28.0495 7.76C27.8005 8.4425 28.2895 9.29 29.5465 10.352C30.4465 11.1125 33.3685 13.853 33.163 17.219C33.043 19.181 31.5175 21.242 29.2765 22.8095C28.4977 22.6688 27.7683 22.3299 27.1585 21.8255C27.424 21.8825 27.6925 21.911 27.9565 21.911V21.911ZM34.909 31.6145C34.804 33.0485 33.934 34.4975 32.4415 34.8155C32.464 34.8035 32.4835 34.7885 32.5045 34.775C32.962 34.5455 33.4165 34.223 33.682 33.995C34.0345 33.692 34.1845 33.1955 34.321 32.708C34.717 31.295 34.333 29.696 33.4075 28.904C32.3905 28.031 31.294 28.0235 29.908 28.0145C28.7935 28.0085 27.0535 27.983 25.348 27.53C25.333 27.236 25.303 26.627 25.267 26.0555C26.2375 26.6345 27.6505 26.753 29.017 26.8685C29.5765 26.915 30.133 26.9615 30.6625 27.038C34.0075 27.5285 35.041 29.81 34.9075 31.613L34.909 31.6145ZM30.91 25.646C30.5035 25.562 30.0625 25.496 29.581 25.436C27.8785 25.232 25.9495 24.9995 24.976 23.501C24.574 22.886 24.406 22.106 24.538 21.866C24.5611 21.8575 24.5854 21.8529 24.61 21.8525C24.745 21.8525 24.967 21.962 25.3765 22.421C26.812 24.0305 28.702 24.9155 30.6955 24.9155C32.8165 24.9155 34.8565 23.9255 36.151 22.271C37.159 20.984 37.5985 19.421 37.471 17.78C37.576 18.3695 37.6315 18.935 37.6315 18.935C37.7255 19.9906 37.543 21.0524 37.102 22.016C36.151 24.101 34.141 25.376 31.4395 25.61L30.91 25.646V25.646ZM16.375 14.4035C16.4304 14.4381 16.4752 14.4874 16.5043 14.546C16.5334 14.6045 16.5458 14.6699 16.54 14.735C16.5445 14.784 16.5388 14.8335 16.5231 14.8801C16.5075 14.9268 16.4822 14.9697 16.4491 15.0061C16.4159 15.0425 16.3755 15.0715 16.3305 15.0914C16.2854 15.1113 16.2367 15.1216 16.1875 15.1216C16.1383 15.1216 16.0896 15.1113 16.0445 15.0914C15.9995 15.0715 15.9591 15.0425 15.9259 15.0061C15.8927 14.9697 15.8675 14.9268 15.8519 14.8801C15.8362 14.8335 15.8305 14.784 15.835 14.735C15.8286 14.6693 15.8408 14.603 15.8703 14.5439C15.8997 14.4848 15.9451 14.4351 16.0014 14.4005C16.0577 14.366 16.1226 14.3479 16.1886 14.3485C16.2547 14.349 16.3193 14.3681 16.375 14.4035V14.4035ZM22.8175 15.068C22.7617 15.0334 22.7167 14.9838 22.6875 14.925C22.6584 14.8662 22.6463 14.8004 22.6525 14.735C22.6494 14.6869 22.6561 14.6386 22.6724 14.5932C22.6886 14.5478 22.714 14.5062 22.747 14.471C22.78 14.4358 22.8198 14.4078 22.8641 14.3886C22.9083 14.3694 22.956 14.3595 23.0042 14.3595C23.0525 14.3595 23.1002 14.3694 23.1444 14.3886C23.1887 14.4078 23.2285 14.4358 23.2615 14.471C23.2945 14.5062 23.3199 14.5478 23.3361 14.5932C23.3524 14.6386 23.3591 14.6869 23.356 14.735C23.3619 14.8005 23.3494 14.8663 23.3201 14.925C23.2907 14.9838 23.2455 15.0333 23.1896 15.0678C23.1337 15.1024 23.0693 15.1207 23.0036 15.1208C22.9379 15.1208 22.8734 15.1025 22.8175 15.068V15.068Z" stroke="black" stroke-width="0.5"/>
</g>
</g>
<defs>
<filter id="filter0_d_28_330" x="1.75012" y="1.75" width="38.454" height="38.5" filterUnits="userSpaceOnUse" color-interpolation-filters="sRGB">
<feFlood flood-opacity="0" result="BackgroundImageFix"/>
<feColorMatrix in="SourceAlpha" type="matrix" values="0 0 0 0 0 0 0 0 0 0 0 0 0 0 0 0 0 0 127 0" result="hardAlpha"/>
<feOffset dx="1" dy="1"/>
<feGaussianBlur stdDeviation="0.5"/>
<feComposite in2="hardAlpha" operator="out"/>
<feColorMatrix type="matrix" values="0 0 0 0 0 0 0 0 0 0 0 0 0 0 0 0 0 0 0.25 0"/>
<feBlend mode="normal" in2="BackgroundImageFix" result="effect1_dropShadow_28_330"/>
<feBlend mode="normal" in="SourceGraphic" in2="effect1_dropShadow_28_330" result="shape"/>
</filter>
<clipPath id="clip0_28_330">
<rect width="40" height="40" fill="white"/>
</clipPath>
</defs>
</svg>
