<svg width="40" height="40" viewBox="0 0 40 40" fill="none" xmlns="http://www.w3.org/2000/svg">
<g clip-path="url(#clip0_28_126)">
<g filter="url(#filter0_d_28_126)">
<path d="M3.6875 2C2.753 2 2 2.753 2 3.6875V36.3125C2 37.247 2.753 38 3.6875 38H36.3125C37.247 38 38 37.247 38 36.3125V3.6875C38 2.753 37.247 2 36.3125 2H3.6875Z" fill="#3178C6" stroke="black" stroke-width="0.5"/>
<path d="M21.407 16.9072H7.0625V20.1562H12.1835V34.6252H16.259V20.1562H21.407V16.9072Z" fill="black"/>
<path d="M32.1725 16.7915C31.463 16.6805 30.65 16.625 29.732 16.625C28.8382 16.6202 27.947 16.7214 27.077 16.9265C26.2915 17.1067 25.5447 17.4263 24.872 17.87C24.236 18.2975 23.735 18.842 23.366 19.5035C22.997 20.165 22.8125 20.9555 22.8125 21.8765C22.8125 23.051 23.1515 24.0545 23.8265 24.884C24.503 25.7135 25.529 26.417 26.906 26.9915C27.4138 27.1995 27.9174 27.4176 28.4165 27.6455C28.8376 27.8339 29.2425 28.0566 29.627 28.3115C29.937 28.5128 30.2096 28.7666 30.4325 29.0615C30.6033 29.2955 30.7044 29.5732 30.7241 29.8622C30.7437 30.1513 30.6811 30.44 30.5435 30.695C30.419 30.914 30.233 31.103 29.984 31.265C29.7335 31.424 29.423 31.55 29.0495 31.64C28.6775 31.73 28.241 31.775 27.7415 31.775C25.9614 31.7662 24.2417 31.1287 22.886 29.975V33.92C23.6025 34.2742 24.3664 34.5233 25.154 34.6595C26.0643 34.8272 26.9883 34.9096 27.914 34.9055C28.8545 34.9055 29.75 34.8155 30.599 34.6355C31.3911 34.4772 32.1473 34.1741 32.8295 33.7415C33.4624 33.3331 33.984 32.7738 34.3475 32.114C34.7195 31.445 34.907 30.6155 34.907 29.63C34.907 28.9145 34.799 28.289 34.586 27.7505C34.373 27.212 34.067 26.7335 33.665 26.315C33.263 25.895 32.7815 25.5185 32.2205 25.1855C31.6595 24.854 31.0265 24.539 30.3215 24.2435C29.8055 24.0305 29.342 23.822 28.9325 23.6195C28.523 23.4185 28.175 23.2145 27.8885 23.0045C27.602 22.7945 27.38 22.5725 27.224 22.3385C27.0695 22.1045 26.99 21.839 26.99 21.545C26.9867 21.2848 27.0597 21.0292 27.2 20.81C27.3395 20.5925 27.5345 20.405 27.7895 20.249C28.0796 20.0789 28.3951 19.9564 28.724 19.886C29.093 19.799 29.5025 19.757 29.9525 19.757C30.6756 19.762 31.3949 19.8629 32.0915 20.057C32.4592 20.16 32.8187 20.2903 33.167 20.447C33.5047 20.5971 33.8276 20.7783 34.1315 20.9885V17.3015C33.4984 17.0627 32.8417 16.8918 32.1725 16.7915Z" fill="black"/>
</g>
</g>
<defs>
<filter id="filter0_d_28_126" x="1.75" y="1.75" width="38.5" height="38.5" filterUnits="userSpaceOnUse" color-interpolation-filters="sRGB">
<feFlood flood-opacity="0" result="BackgroundImageFix"/>
<feColorMatrix in="SourceAlpha" type="matrix" values="0 0 0 0 0 0 0 0 0 0 0 0 0 0 0 0 0 0 127 0" result="hardAlpha"/>
<feOffset dx="1" dy="1"/>
<feGaussianBlur stdDeviation="0.5"/>
<feComposite in2="hardAlpha" operator="out"/>
<feColorMatrix type="matrix" values="0 0 0 0 0 0 0 0 0 0 0 0 0 0 0 0 0 0 0.25 0"/>
<feBlend mode="normal" in2="BackgroundImageFix" result="effect1_dropShadow_28_126"/>
<feBlend mode="normal" in="SourceGraphic" in2="effect1_dropShadow_28_126" result="shape"/>
</filter>
<clipPath id="clip0_28_126">
<rect width="40" height="40" fill="white"/>
</clipPath>
</defs>
</svg>
