<svg width="339" height="38" viewBox="0 0 339 38" fill="none" xmlns="http://www.w3.org/2000/svg">
<path d="M20.7422 31.457V25.1055L7.89844 20.8164L6.30469 20.2539L7.89844 19.668L20.7422 15.3086V8.98047L0 17.582V22.8555L20.7422 31.457Z" fill="url(#paint0_linear_219_2098)"/>
<path d="M39.8203 22.082L46.2422 34.832H53.2969V34.5273L45.9609 20.4414C46.8984 20.0195 47.7422 19.5195 48.4922 18.9414C49.2578 18.3633 49.9141 17.6836 50.4609 16.9023C50.9922 16.1367 51.3984 15.2695 51.6797 14.3008C51.9766 13.3164 52.125 12.2148 52.125 10.9961C52.125 9.30859 51.8281 7.82422 51.2344 6.54297C50.6562 5.26172 49.8281 4.19141 48.75 3.33203C47.6562 2.47266 46.3438 1.82422 44.8125 1.38672C43.2812 0.933594 41.5703 0.707031 39.6797 0.707031H28.2422V34.832H34.8281V22.082H39.8203ZM34.8281 16.7383V6.05078H39.6797C40.5859 6.05078 41.3906 6.16016 42.0938 6.37891C42.7969 6.59766 43.3906 6.91016 43.875 7.31641C44.4219 7.76953 44.8281 8.34766 45.0938 9.05078C45.375 9.73828 45.5156 10.5352 45.5156 11.4414C45.5156 12.1914 45.4062 12.8711 45.1875 13.4805C44.9844 14.0898 44.6797 14.6133 44.2734 15.0508C43.7891 15.5977 43.1562 16.0195 42.375 16.3164C41.6094 16.5977 40.7188 16.7383 39.7031 16.7383H34.8281Z" fill="url(#paint1_linear_219_2098)"/>
<path d="M69.6094 35.3008C72.0625 35.3008 74.1875 34.8242 75.9844 33.8711C77.7812 32.918 79.0938 31.8555 79.9219 30.6836L76.6641 27.168C75.9141 28.1367 74.9375 28.8633 73.7344 29.3477C72.5312 29.832 71.2891 30.0742 70.0078 30.0742C69.1016 30.0742 68.2656 29.9336 67.5 29.6523C66.7344 29.3711 66.0547 28.9727 65.4609 28.457C64.8828 27.957 64.4219 27.4023 64.0781 26.793C63.7344 26.168 63.4531 25.3477 63.2344 24.332V24.2617H77.6719C79.1993 24.2617 80.4375 23.0235 80.4375 21.4961C80.4375 19.6367 80.1797 17.9414 79.6641 16.4102C79.1484 14.8633 78.3984 13.543 77.4141 12.4492C76.4141 11.3555 75.1953 10.5117 73.7578 9.91797C72.3359 9.30859 70.7109 9.00391 68.8828 9.00391C67.1172 9.00391 65.4844 9.32422 63.9844 9.96484C62.4844 10.6055 61.1875 11.5039 60.0938 12.6602C59 13.8164 58.1484 15.1992 57.5391 16.8086C56.9297 18.4023 56.625 20.168 56.625 22.1055V23.043C56.625 24.7461 56.9297 26.3477 57.5391 27.8477C58.1641 29.332 59.0469 30.6211 60.1875 31.7148C61.3281 32.8242 62.6953 33.6992 64.2891 34.3398C65.8828 34.9805 67.6562 35.3008 69.6094 35.3008ZM68.8359 14.2773C69.6641 14.2773 70.3906 14.4102 71.0156 14.6758C71.6562 14.9258 72.1953 15.2695 72.6328 15.707C73.0703 16.1602 73.4141 16.6914 73.6641 17.3008C73.9141 17.9102 74.0391 18.5586 74.0391 19.2461V19.7617H63.3516C63.5078 18.9336 63.7422 18.1836 64.0547 17.5117C64.3672 16.8398 64.7578 16.2617 65.2266 15.7773C65.6797 15.293 66.2109 14.9258 66.8203 14.6758C67.4297 14.4102 68.1016 14.2773 68.8359 14.2773Z" fill="url(#paint2_linear_219_2098)"/>
<path d="M86.1328 34.832H92.6719V16.8086C92.8906 16.4648 93.1328 16.1523 93.3984 15.8711C93.6641 15.5898 93.9609 15.3477 94.2891 15.1445C94.6953 14.8633 95.1562 14.6523 95.6719 14.5117C96.2031 14.3711 96.7812 14.3008 97.4062 14.3008C98.1562 14.3008 98.8281 14.3789 99.4219 14.5352C100.016 14.6758 100.523 14.9336 100.945 15.3086C101.367 15.6836 101.688 16.1992 101.906 16.8555C102.141 17.4961 102.258 18.3164 102.258 19.3164V30.832C102.258 33.0412 104.049 34.832 106.258 34.832H108.773V19.2227C108.773 17.3789 108.555 15.8164 108.117 14.5352C107.695 13.2383 107.102 12.1758 106.336 11.3477C105.555 10.5352 104.633 9.94141 103.57 9.56641C102.508 9.19141 101.336 9.00391 100.055 9.00391C99.0547 9.00391 98.1094 9.14453 97.2188 9.42578C96.3281 9.70703 95.5078 10.1133 94.7578 10.6445C94.3203 10.957 93.9062 11.3086 93.5156 11.6992C93.125 12.0898 92.7656 12.5195 92.4375 12.9883L92.0391 9.47266H86.1328V34.832Z" fill="url(#paint3_linear_219_2098)"/>
<path d="M130.805 34.832H137.414V34.4336C137.086 33.793 136.836 33.0273 136.664 32.1367C136.492 31.2461 136.406 30.1211 136.406 28.7617V17.8867C136.406 16.418 136.133 15.1289 135.586 14.0195C135.039 12.8945 134.281 11.9648 133.312 11.2305C132.344 10.4961 131.195 9.94141 129.867 9.56641C128.555 9.19141 127.133 9.00391 125.602 9.00391C123.898 9.00391 122.383 9.22266 121.055 9.66016C119.742 10.082 118.633 10.6602 117.727 11.3945C116.805 12.1289 116.102 12.9805 115.617 13.9492C115.148 14.918 114.914 15.9414 114.914 17.0195H121.43C121.43 16.5664 121.492 16.1523 121.617 15.7773C121.758 15.4023 121.969 15.082 122.25 14.8164C122.562 14.5195 122.969 14.293 123.469 14.1367C123.969 13.9648 124.562 13.8789 125.25 13.8789C126.031 13.8789 126.711 13.9805 127.289 14.1836C127.883 14.3711 128.375 14.6445 128.766 15.0039C129.141 15.3477 129.422 15.7617 129.609 16.2461C129.797 16.7148 129.891 17.2461 129.891 17.8398V19.3398H126.258C124.383 19.3398 122.719 19.5117 121.266 19.8555C119.828 20.1836 118.617 20.668 117.633 21.3086C116.539 22.0117 115.719 22.9102 115.172 24.0039C114.625 25.082 114.352 26.3242 114.352 27.7305C114.352 28.8242 114.57 29.8398 115.008 30.7773C115.445 31.6992 116.055 32.4961 116.836 33.168C117.617 33.8398 118.547 34.3633 119.625 34.7383C120.719 35.1133 121.914 35.3008 123.211 35.3008C124.008 35.3008 124.75 35.2227 125.438 35.0664C126.125 34.9258 126.758 34.7227 127.336 34.457C127.898 34.207 128.414 33.9102 128.883 33.5664C129.352 33.2227 129.766 32.8555 130.125 32.4648C130.203 32.918 130.297 33.3477 130.406 33.7539C130.516 34.1602 130.648 34.5195 130.805 34.832ZM124.594 30.2617C123.984 30.2617 123.445 30.1914 122.977 30.0508C122.523 29.8945 122.141 29.6914 121.828 29.4414C121.516 29.1758 121.273 28.8555 121.102 28.4805C120.945 28.0898 120.867 27.668 120.867 27.2148C120.867 26.6367 120.977 26.1055 121.195 25.6211C121.414 25.1211 121.75 24.6914 122.203 24.332C122.656 23.9883 123.242 23.7227 123.961 23.5352C124.68 23.332 125.547 23.2305 126.562 23.2305H129.891V27.5898C129.703 27.918 129.445 28.2461 129.117 28.5742C128.789 28.8867 128.398 29.168 127.945 29.418C127.492 29.668 126.984 29.8711 126.422 30.0273C125.859 30.1836 125.25 30.2617 124.594 30.2617Z" fill="url(#paint4_linear_219_2098)"/>
<path d="M143.789 34.832H150.328V16.8086C150.547 16.4648 150.789 16.1523 151.055 15.8711C151.32 15.5898 151.617 15.3477 151.945 15.1445C152.352 14.8633 152.812 14.6523 153.328 14.5117C153.859 14.3711 154.438 14.3008 155.062 14.3008C155.812 14.3008 156.484 14.3789 157.078 14.5352C157.672 14.6758 158.18 14.9336 158.602 15.3086C159.023 15.6836 159.344 16.1992 159.562 16.8555C159.797 17.4961 159.914 18.3164 159.914 19.3164V30.832C159.914 33.0412 161.705 34.832 163.914 34.832H166.43V19.2227C166.43 17.3789 166.211 15.8164 165.773 14.5352C165.352 13.2383 164.758 12.1758 163.992 11.3477C163.211 10.5352 162.289 9.94141 161.227 9.56641C160.164 9.19141 158.992 9.00391 157.711 9.00391C156.711 9.00391 155.766 9.14453 154.875 9.42578C153.984 9.70703 153.164 10.1133 152.414 10.6445C151.977 10.957 151.562 11.3086 151.172 11.6992C150.781 12.0898 150.422 12.5195 150.094 12.9883L149.695 9.47266H143.789V34.832Z" fill="url(#paint5_linear_219_2098)"/>
<path d="M197.461 6.07422V0.707031H169.945V6.07422H180.328V34.832H186.938V6.07422H197.461Z" fill="url(#paint6_linear_219_2098)"/>
<path d="M212.789 22.082L219.211 34.832H226.266V34.5273L218.93 20.4414C219.867 20.0195 220.711 19.5195 221.461 18.9414C222.227 18.3633 222.883 17.6836 223.43 16.9023C223.961 16.1367 224.367 15.2695 224.648 14.3008C224.945 13.3164 225.094 12.2148 225.094 10.9961C225.094 9.30859 224.797 7.82422 224.203 6.54297C223.625 5.26172 222.797 4.19141 221.719 3.33203C220.625 2.47266 219.312 1.82422 217.781 1.38672C216.25 0.933594 214.539 0.707031 212.648 0.707031H201.211V34.832H207.797V22.082H212.789ZM207.797 16.7383V6.05078H212.648C213.555 6.05078 214.359 6.16016 215.062 6.37891C215.766 6.59766 216.359 6.91016 216.844 7.31641C217.391 7.76953 217.797 8.34766 218.062 9.05078C218.344 9.73828 218.484 10.5352 218.484 11.4414C218.484 12.1914 218.375 12.8711 218.156 13.4805C217.953 14.0898 217.648 14.6133 217.242 15.0508C216.758 15.5977 216.125 16.0195 215.344 16.3164C214.578 16.5977 213.688 16.7383 212.672 16.7383H207.797Z" fill="url(#paint7_linear_219_2098)"/>
<path d="M247.758 25.9258C247.758 26.5352 247.633 27.0977 247.383 27.6133C247.133 28.1133 246.773 28.543 246.305 28.9023C245.836 29.2617 245.258 29.543 244.57 29.7461C243.898 29.9492 243.125 30.0508 242.25 30.0508C241.266 30.0508 240.359 29.9414 239.531 29.7227C238.719 29.5039 238.023 29.1602 237.445 28.6914C236.852 28.2227 236.391 27.6211 236.062 26.8867C235.734 26.1523 235.555 25.2695 235.523 24.2383H229.055C229.055 26.0039 229.391 27.543 230.062 28.8555C230.75 30.168 231.68 31.3086 232.852 32.2773C234.086 33.2617 235.531 34.0117 237.188 34.5273C238.859 35.0273 240.547 35.2773 242.25 35.2773C243.984 35.2773 245.586 35.0742 247.055 34.668C248.523 34.2461 249.789 33.6289 250.852 32.8164C251.914 32.0195 252.742 31.043 253.336 29.8867C253.945 28.7148 254.25 27.3789 254.25 25.8789C254.25 24.1445 253.852 22.6133 253.055 21.2852C252.258 19.957 251.188 18.793 249.844 17.793C248.953 17.1836 247.977 16.6445 246.914 16.1758C245.852 15.707 244.734 15.3086 243.562 14.9805C242.469 14.6836 241.484 14.3633 240.609 14.0195C239.75 13.6758 239.016 13.293 238.406 12.8711C237.797 12.4648 237.328 12.0039 237 11.4883C236.688 10.9727 236.531 10.3945 236.531 9.75391C236.531 9.14453 236.648 8.58203 236.883 8.06641C237.133 7.53516 237.492 7.07422 237.961 6.68359C238.43 6.30859 239 6.01953 239.672 5.81641C240.359 5.59766 241.141 5.48828 242.016 5.48828C242.969 5.48828 243.797 5.62109 244.5 5.88672C245.219 6.13672 245.82 6.48828 246.305 6.94141C246.773 7.41016 247.125 7.96484 247.359 8.60547C247.609 9.24609 247.75 9.94922 247.781 10.7148H254.203C254.203 9.18359 253.906 7.77734 253.312 6.49609C252.719 5.21484 251.891 4.10547 250.828 3.16797C249.766 2.24609 248.492 1.52734 247.008 1.01172C245.539 0.496094 243.914 0.238281 242.133 0.238281C240.414 0.238281 238.82 0.464844 237.352 0.917969C235.883 1.35547 234.609 1.98828 233.531 2.81641C232.453 3.64453 231.609 4.64453 231 5.81641C230.391 6.98828 230.086 8.29297 230.086 9.73047C230.086 10.9805 230.312 12.1367 230.766 13.1992C231.234 14.2617 231.922 15.2305 232.828 16.1055C233.734 16.9805 234.898 17.7852 236.32 18.5195C237.758 19.2539 239.422 19.8789 241.312 20.3945C242.531 20.7227 243.547 21.082 244.359 21.4727C245.188 21.8477 245.859 22.2617 246.375 22.7148C246.875 23.1836 247.227 23.6836 247.43 24.2148C247.648 24.7461 247.758 25.3164 247.758 25.9258Z" fill="url(#paint8_linear_219_2098)"/>
<path d="M295.852 37.7617L308.625 0.707031H302.555L289.781 37.7617H295.852Z" fill="url(#paint9_linear_219_2098)"/>
<path d="M317.227 31.4805L338.32 22.8789V17.5586L317.227 8.98047V15.2852L330.68 19.7148L332.086 20.1836L330.656 20.6523L317.227 25.1523V31.4805Z" fill="url(#paint10_linear_219_2098)"/>
<defs>
<linearGradient id="paint0_linear_219_2098" x1="-3.65625" y1="17.0023" x2="342.344" y2="17.0023" gradientUnits="userSpaceOnUse">
<stop stop-color="#22C55E"/>
<stop offset="1" stop-color="#3730A3"/>
</linearGradient>
<linearGradient id="paint1_linear_219_2098" x1="-3.65625" y1="17.0023" x2="342.344" y2="17.0023" gradientUnits="userSpaceOnUse">
<stop stop-color="#22C55E"/>
<stop offset="1" stop-color="#3730A3"/>
</linearGradient>
<linearGradient id="paint2_linear_219_2098" x1="-3.65625" y1="17.0023" x2="342.344" y2="17.0023" gradientUnits="userSpaceOnUse">
<stop stop-color="#22C55E"/>
<stop offset="1" stop-color="#3730A3"/>
</linearGradient>
<linearGradient id="paint3_linear_219_2098" x1="-3.65625" y1="17.0023" x2="342.344" y2="17.0023" gradientUnits="userSpaceOnUse">
<stop stop-color="#22C55E"/>
<stop offset="1" stop-color="#3730A3"/>
</linearGradient>
<linearGradient id="paint4_linear_219_2098" x1="-3.65625" y1="17.0023" x2="342.344" y2="17.0023" gradientUnits="userSpaceOnUse">
<stop stop-color="#22C55E"/>
<stop offset="1" stop-color="#3730A3"/>
</linearGradient>
<linearGradient id="paint5_linear_219_2098" x1="-3.65625" y1="17.0023" x2="342.344" y2="17.0023" gradientUnits="userSpaceOnUse">
<stop stop-color="#22C55E"/>
<stop offset="1" stop-color="#3730A3"/>
</linearGradient>
<linearGradient id="paint6_linear_219_2098" x1="-3.65625" y1="17.0023" x2="342.344" y2="17.0023" gradientUnits="userSpaceOnUse">
<stop stop-color="#22C55E"/>
<stop offset="1" stop-color="#3730A3"/>
</linearGradient>
<linearGradient id="paint7_linear_219_2098" x1="-3.65625" y1="17.0023" x2="342.344" y2="17.0023" gradientUnits="userSpaceOnUse">
<stop stop-color="#22C55E"/>
<stop offset="1" stop-color="#3730A3"/>
</linearGradient>
<linearGradient id="paint8_linear_219_2098" x1="-3.65625" y1="17.0023" x2="342.344" y2="17.0023" gradientUnits="userSpaceOnUse">
<stop stop-color="#22C55E"/>
<stop offset="1" stop-color="#3730A3"/>
</linearGradient>
<linearGradient id="paint9_linear_219_2098" x1="-3.65625" y1="17.0023" x2="342.344" y2="17.0023" gradientUnits="userSpaceOnUse">
<stop stop-color="#22C55E"/>
<stop offset="1" stop-color="#3730A3"/>
</linearGradient>
<linearGradient id="paint10_linear_219_2098" x1="-3.65625" y1="17.0023" x2="342.344" y2="17.0023" gradientUnits="userSpaceOnUse">
<stop stop-color="#22C55E"/>
<stop offset="1" stop-color="#3730A3"/>
</linearGradient>
</defs>
</svg>